<svg width="158" height="49" viewBox="0 0 158 49" fill="none" xmlns="http://www.w3.org/2000/svg">
    <path fill-rule="evenodd" clip-rule="evenodd" d="M36.324 44.9079C35.472 45.7479 34.44 46.1679 33.228 46.1679C32.016 46.1679 30.984 45.7479 30.132 44.9079C29.292 44.0559 28.872 43.0239 28.872 41.7999C28.872 40.5759 29.292 39.5439 30.132 38.7039C30.984 37.8519 32.016 37.4319 33.228 37.4319C34.44 37.4319 35.472 37.8519 36.324 38.7039C37.176 39.5439 37.596 40.5759 37.596 41.7999C37.596 43.0239 37.176 44.0559 36.324 44.9079ZM4.62002 45.9999C5.26802 45.9999 5.82002 45.7719 6.27602 45.3159C6.73202 44.8599 6.96002 44.3079 6.96002 43.6599C6.96002 43.2039 6.83802 42.7979 6.59402 42.4419C6.35002 42.0859 6.02402 41.8199 5.61602 41.6439C6.27202 41.2359 6.60002 40.6399 6.60002 39.8559C6.60002 39.2399 6.38002 38.7099 5.94002 38.2659C5.50002 37.8219 4.96802 37.5999 4.34402 37.5999H0.960022V45.9999H4.62002ZM4.34402 41.3199H1.80002V38.3919H4.34402C4.73602 38.3919 5.07002 38.5359 5.34602 38.8239C5.62202 39.1119 5.76002 39.4559 5.76002 39.8559C5.76002 40.2639 5.62202 40.6099 5.34602 40.8939C5.07002 41.1779 4.73602 41.3199 4.34402 41.3199ZM1.80002 45.2079H4.62002C5.03602 45.2079 5.39002 45.0579 5.68202 44.7579C5.97402 44.4579 6.12002 44.0919 6.12002 43.6599C6.12002 43.2359 5.97402 42.8719 5.68202 42.5679C5.39002 42.2639 5.03602 42.1119 4.62002 42.1119H1.80002V45.2079ZM8.26802 48.3999C8.79602 48.4399 9.27402 48.2899 9.70202 47.9499C10.13 47.6099 10.46 47.1439 10.692 46.5519L13.26 39.9999H12.42L10.476 45.0279L8.22002 39.9999H7.38002L10.068 46.0359L9.91202 46.4079C9.53602 47.3199 8.98802 47.7359 8.26802 47.6559V48.3999ZM18.816 44.4159H22.02V45.9999H17.16V37.5999H18.816V44.4159ZM28.152 44.4159H24.612V42.5319H27.792V40.9719H24.612V39.1839H28.092V37.5999H22.956V45.9999H28.152V44.4159ZM33.228 44.5479C32.46 44.5479 31.812 44.2959 31.296 43.7799C30.78 43.2639 30.516 42.6039 30.516 41.7999C30.516 40.9959 30.78 40.3359 31.296 39.8199C31.812 39.3039 32.46 39.0399 33.228 39.0399C33.996 39.0399 34.644 39.3039 35.16 39.8199C35.676 40.3359 35.94 40.9959 35.94 41.7999C35.94 42.6039 35.676 43.2639 35.16 43.7799C34.644 44.2959 33.996 44.5479 33.228 44.5479ZM43.416 43.2399V45.9999H41.76V37.5999H44.892C45.696 37.5999 46.38 37.8759 46.932 38.4159C47.484 38.9559 47.76 39.6279 47.76 40.4199C47.76 41.2119 47.484 41.8839 46.932 42.4239C46.38 42.9639 45.696 43.2399 44.892 43.2399H43.416ZM44.892 41.6919H43.416V39.1479H44.892C45.6 39.1479 46.116 39.6879 46.116 40.4199C46.116 41.1399 45.6 41.6919 44.892 41.6919ZM50.316 42.7599V45.9999H48.768V37.5999H50.316V40.6719C50.688 40.1079 51.288 39.8319 52.104 39.8319C52.764 39.8319 53.304 40.0479 53.724 40.4919C54.156 40.9359 54.372 41.5359 54.372 42.3159V45.9999H52.824V42.5079C52.824 41.7039 52.356 41.2719 51.636 41.2719C50.832 41.2719 50.316 41.7639 50.316 42.7599ZM58.296 46.1679C59.136 46.1679 59.784 45.8799 60.252 45.2919V45.9999H61.8V39.9999H60.252V40.7079C59.784 40.1199 59.136 39.8319 58.296 39.8319C57.492 39.8319 56.808 40.1439 56.232 40.7559C55.668 41.3679 55.38 42.1119 55.38 42.9999C55.38 43.8879 55.668 44.6439 56.232 45.2559C56.808 45.8679 57.492 46.1679 58.296 46.1679ZM57.396 44.2239C57.708 44.5359 58.104 44.6919 58.584 44.6919C59.064 44.6919 59.46 44.5359 59.772 44.2239C60.096 43.8999 60.252 43.4919 60.252 42.9999C60.252 42.5079 60.096 42.0999 59.772 41.7879C59.46 41.4639 59.064 41.3079 58.584 41.3079C58.104 41.3079 57.708 41.4639 57.396 41.7879C57.084 42.0999 56.928 42.5079 56.928 42.9999C56.928 43.4919 57.084 43.8999 57.396 44.2239ZM64.752 45.9999V43.1319C64.752 42.5559 64.932 42.1479 65.304 41.8959C65.676 41.6439 66.108 41.5479 66.576 41.6079V39.8799C65.76 39.8799 65.04 40.2639 64.752 41.0319V39.9999H63.204V45.9999H64.752ZM69.024 42.6279V45.9999H67.476V39.9999H69.024V40.6359C69.384 40.0959 69.936 39.8319 70.692 39.8319C71.424 39.8319 71.976 40.1199 72.324 40.6959C72.72 40.1199 73.32 39.8319 74.112 39.8319C75.492 39.8319 76.38 40.8039 76.38 42.3039V45.9999H74.832V42.4119C74.832 41.6919 74.46 41.2719 73.824 41.2719C73.116 41.2719 72.708 41.7519 72.708 42.6279V45.9999H71.16V42.4119C71.16 41.6919 70.788 41.2719 70.152 41.2719C69.468 41.2719 69.024 41.7519 69.024 42.6279ZM80.304 46.1679C81.144 46.1679 81.792 45.8799 82.26 45.2919V45.9999H83.808V39.9999H82.26V40.7079C81.792 40.1199 81.144 39.8319 80.304 39.8319C79.5 39.8319 78.816 40.1439 78.24 40.7559C77.676 41.3679 77.388 42.1119 77.388 42.9999C77.388 43.8879 77.676 44.6439 78.24 45.2559C78.816 45.8679 79.5 46.1679 80.304 46.1679ZM79.404 44.2239C79.716 44.5359 80.112 44.6919 80.592 44.6919C81.072 44.6919 81.468 44.5359 81.78 44.2239C82.104 43.8999 82.26 43.4919 82.26 42.9999C82.26 42.5079 82.104 42.0999 81.78 41.7879C81.468 41.4639 81.072 41.3079 80.592 41.3079C80.112 41.3079 79.716 41.4639 79.404 41.7879C79.092 42.0999 78.936 42.5079 78.936 42.9999C78.936 43.4919 79.092 43.8999 79.404 44.2239Z" fill="white" />
    <path fill-rule="evenodd" clip-rule="evenodd" d="M36.324 44.9079C35.472 45.7479 34.44 46.1679 33.228 46.1679C32.016 46.1679 30.984 45.7479 30.132 44.9079C29.292 44.0559 28.872 43.0239 28.872 41.7999C28.872 40.5759 29.292 39.5439 30.132 38.7039C30.984 37.8519 32.016 37.4319 33.228 37.4319C34.44 37.4319 35.472 37.8519 36.324 38.7039C37.176 39.5439 37.596 40.5759 37.596 41.7999C37.596 43.0239 37.176 44.0559 36.324 44.9079ZM4.62002 45.9999C5.26802 45.9999 5.82002 45.7719 6.27602 45.3159C6.73202 44.8599 6.96002 44.3079 6.96002 43.6599C6.96002 43.2039 6.83802 42.7979 6.59402 42.4419C6.35002 42.0859 6.02402 41.8199 5.61602 41.6439C6.27202 41.2359 6.60002 40.6399 6.60002 39.8559C6.60002 39.2399 6.38002 38.7099 5.94002 38.2659C5.50002 37.8219 4.96802 37.5999 4.34402 37.5999H0.960022V45.9999H4.62002ZM4.34402 41.3199H1.80002V38.3919H4.34402C4.73602 38.3919 5.07002 38.5359 5.34602 38.8239C5.62202 39.1119 5.76002 39.4559 5.76002 39.8559C5.76002 40.2639 5.62202 40.6099 5.34602 40.8939C5.07002 41.1779 4.73602 41.3199 4.34402 41.3199ZM1.80002 45.2079H4.62002C5.03602 45.2079 5.39002 45.0579 5.68202 44.7579C5.97402 44.4579 6.12002 44.0919 6.12002 43.6599C6.12002 43.2359 5.97402 42.8719 5.68202 42.5679C5.39002 42.2639 5.03602 42.1119 4.62002 42.1119H1.80002V45.2079ZM8.26802 48.3999C8.79602 48.4399 9.27402 48.2899 9.70202 47.9499C10.13 47.6099 10.46 47.1439 10.692 46.5519L13.26 39.9999H12.42L10.476 45.0279L8.22002 39.9999H7.38002L10.068 46.0359L9.91202 46.4079C9.53602 47.3199 8.98802 47.7359 8.26802 47.6559V48.3999ZM18.816 44.4159H22.02V45.9999H17.16V37.5999H18.816V44.4159ZM28.152 44.4159H24.612V42.5319H27.792V40.9719H24.612V39.1839H28.092V37.5999H22.956V45.9999H28.152V44.4159ZM33.228 44.5479C32.46 44.5479 31.812 44.2959 31.296 43.7799C30.78 43.2639 30.516 42.6039 30.516 41.7999C30.516 40.9959 30.78 40.3359 31.296 39.8199C31.812 39.3039 32.46 39.0399 33.228 39.0399C33.996 39.0399 34.644 39.3039 35.16 39.8199C35.676 40.3359 35.94 40.9959 35.94 41.7999C35.94 42.6039 35.676 43.2639 35.16 43.7799C34.644 44.2959 33.996 44.5479 33.228 44.5479ZM43.416 43.2399V45.9999H41.76V37.5999H44.892C45.696 37.5999 46.38 37.8759 46.932 38.4159C47.484 38.9559 47.76 39.6279 47.76 40.4199C47.76 41.2119 47.484 41.8839 46.932 42.4239C46.38 42.9639 45.696 43.2399 44.892 43.2399H43.416ZM44.892 41.6919H43.416V39.1479H44.892C45.6 39.1479 46.116 39.6879 46.116 40.4199C46.116 41.1399 45.6 41.6919 44.892 41.6919ZM50.316 42.7599V45.9999H48.768V37.5999H50.316V40.6719C50.688 40.1079 51.288 39.8319 52.104 39.8319C52.764 39.8319 53.304 40.0479 53.724 40.4919C54.156 40.9359 54.372 41.5359 54.372 42.3159V45.9999H52.824V42.5079C52.824 41.7039 52.356 41.2719 51.636 41.2719C50.832 41.2719 50.316 41.7639 50.316 42.7599ZM58.296 46.1679C59.136 46.1679 59.784 45.8799 60.252 45.2919V45.9999H61.8V39.9999H60.252V40.7079C59.784 40.1199 59.136 39.8319 58.296 39.8319C57.492 39.8319 56.808 40.1439 56.232 40.7559C55.668 41.3679 55.38 42.1119 55.38 42.9999C55.38 43.8879 55.668 44.6439 56.232 45.2559C56.808 45.8679 57.492 46.1679 58.296 46.1679ZM57.396 44.2239C57.708 44.5359 58.104 44.6919 58.584 44.6919C59.064 44.6919 59.46 44.5359 59.772 44.2239C60.096 43.8999 60.252 43.4919 60.252 42.9999C60.252 42.5079 60.096 42.0999 59.772 41.7879C59.46 41.4639 59.064 41.3079 58.584 41.3079C58.104 41.3079 57.708 41.4639 57.396 41.7879C57.084 42.0999 56.928 42.5079 56.928 42.9999C56.928 43.4919 57.084 43.8999 57.396 44.2239ZM64.752 45.9999V43.1319C64.752 42.5559 64.932 42.1479 65.304 41.8959C65.676 41.6439 66.108 41.5479 66.576 41.6079V39.8799C65.76 39.8799 65.04 40.2639 64.752 41.0319V39.9999H63.204V45.9999H64.752ZM69.024 42.6279V45.9999H67.476V39.9999H69.024V40.6359C69.384 40.0959 69.936 39.8319 70.692 39.8319C71.424 39.8319 71.976 40.1199 72.324 40.6959C72.72 40.1199 73.32 39.8319 74.112 39.8319C75.492 39.8319 76.38 40.8039 76.38 42.3039V45.9999H74.832V42.4119C74.832 41.6919 74.46 41.2719 73.824 41.2719C73.116 41.2719 72.708 41.7519 72.708 42.6279V45.9999H71.16V42.4119C71.16 41.6919 70.788 41.2719 70.152 41.2719C69.468 41.2719 69.024 41.7519 69.024 42.6279ZM80.304 46.1679C81.144 46.1679 81.792 45.8799 82.26 45.2919V45.9999H83.808V39.9999H82.26V40.7079C81.792 40.1199 81.144 39.8319 80.304 39.8319C79.5 39.8319 78.816 40.1439 78.24 40.7559C77.676 41.3679 77.388 42.1119 77.388 42.9999C77.388 43.8879 77.676 44.6439 78.24 45.2559C78.816 45.8679 79.5 46.1679 80.304 46.1679ZM79.404 44.2239C79.716 44.5359 80.112 44.6919 80.592 44.6919C81.072 44.6919 81.468 44.5359 81.78 44.2239C82.104 43.8999 82.26 43.4919 82.26 42.9999C82.26 42.5079 82.104 42.0999 81.78 41.7879C81.468 41.4639 81.072 41.3079 80.592 41.3079C80.112 41.3079 79.716 41.4639 79.404 41.7879C79.092 42.0999 78.936 42.5079 78.936 42.9999C78.936 43.4919 79.092 43.8999 79.404 44.2239Z" fill="black" />
    <path fill-rule="evenodd" clip-rule="evenodd" d="M15.741 22.2731C14.013 24.0821 11.853 25.0001 9.261 25.0001H1.755V6.1001H9.261C11.853 6.1001 14.013 7.0181 15.741 8.8271C17.496 10.6361 18.36 12.8771 18.36 15.5501C18.36 18.2231 17.496 20.4641 15.741 22.2731ZM5.481 21.4361H9.261C10.908 21.4361 12.231 20.8961 13.257 19.8161C14.283 18.7091 14.796 17.3051 14.796 15.5501C14.796 13.7951 14.283 12.3911 13.257 11.3111C12.231 10.2041 10.908 9.6641 9.261 9.6641H5.481V21.4361ZM32.697 25.0001V21.4361H24.732V17.1971H31.887V13.6871H24.732V9.6641H32.562V6.1001H21.006V25.0001H32.697ZM39.042 18.4391V25.0001H35.316V6.1001H42.876C44.631 6.1001 46.116 6.7211 47.331 7.9361C48.546 9.1511 49.167 10.6361 49.167 12.3641C49.167 14.7131 47.709 16.8731 45.522 17.8721L49.707 25.0001H45.684L41.877 18.4391H39.042ZM42.876 15.1721H39.042V9.5831H42.876C44.28 9.5831 45.441 10.8251 45.441 12.3641C45.441 13.9031 44.28 15.1721 42.876 15.1721ZM55.62 12.7691V25.0001H51.894V6.1001H55.728L61.155 15.0371L66.555 6.1001H70.389V25.0001H66.69V12.7421L61.371 21.5171H60.939L55.62 12.7691ZM76.248 25.0001L77.382 21.5981H84.915L86.049 25.0001H90.099L83.457 6.1001H78.84L72.225 25.0001H76.248ZM78.57 18.1151H83.754L81.162 10.3931L78.57 18.1151Z" fill="black" />
    <path fill-rule="evenodd" clip-rule="evenodd" d="M135.009 25.054C134.901 25.072 134.793 25.081 134.685 25.081C134.651 25.0833 134.62 25.084 134.59 25.0831C134.383 25.0772 134.28 24.9955 134.28 24.838C134.28 24.712 134.379 24.649 134.577 24.649H135.279C135.783 24.649 136.035 24.541 136.035 24.325C136.05 24.2373 136.058 23.7574 136.061 22.8854L136.062 22.4551L136.062 22.219V8.47603C136.062 7.88203 136.044 7.55803 136.008 7.50403C135.954 7.36003 135.81 7.28803 135.576 7.28803H135.36L134.604 7.31503C134.352 7.31503 134.226 7.23403 134.226 7.07203C134.226 6.92803 134.451 6.84703 134.901 6.82903C135.765 6.77503 136.566 6.57703 137.304 6.23503L137.871 5.96503L138.087 5.88403C138.231 6.40603 138.294 7.19803 138.276 8.26003L138.249 10.177L138.276 23.407C138.276 23.947 138.285 24.2665 138.303 24.3655C138.317 24.4447 138.361 24.5038 138.433 24.5427L138.492 24.568C138.51 24.586 138.843 24.604 139.491 24.622C139.905 24.622 140.112 24.685 140.112 24.811C140.112 24.973 139.995 25.054 139.761 25.054H139.437C139.401 25.054 138.924 25.036 138.006 25L137.169 24.973C137.025 24.973 136.305 25 135.009 25.054ZM106.983 25C106.911 25.234 106.821 25.351 106.713 25.351C106.623 25.351 106.537 25.261 106.456 25.081C106.375 24.901 106.137 24.271 105.741 23.191C105.237 21.787 104.688 20.374 104.094 18.952C103.626 17.836 103.167 16.684 102.717 15.496C101.457 18.538 100.206 21.715 98.964 25.027C98.892 25.243 98.802 25.351 98.694 25.351C98.604 25.351 98.496 25.198 98.37 24.892C97.812 23.56 95.742 18.043 92.16 8.34103C91.908 7.65703 91.719 7.22953 91.593 7.05853C91.467 6.88753 91.152 6.79303 90.648 6.77503C89.784 6.73903 89.352 6.61303 89.352 6.39703C89.352 6.23503 89.496 6.15403 89.784 6.15403C89.91 6.15403 90.018 6.16303 90.108 6.18103C91.062 6.23503 92.088 6.26203 93.186 6.26203C93.402 6.26203 93.7755 6.24853 94.3065 6.22153C94.8375 6.19453 95.526 6.18103 96.372 6.18103H96.669C96.975 6.18103 97.128 6.26203 97.128 6.42403C97.128 6.62203 96.849 6.73003 96.291 6.74803C95.175 6.78403 94.617 6.92803 94.617 7.18003C94.617 7.68403 96.273 12.373 99.585 21.247C100.791 18.205 101.691 15.964 102.285 14.524L99.612 7.61203C99.468 7.23403 99.3015 6.99103 99.1125 6.88303C98.9235 6.77503 98.577 6.71203 98.073 6.69403C97.569 6.67603 97.317 6.59503 97.317 6.45103C97.317 6.25303 97.506 6.15403 97.884 6.15403C98.172 6.15403 98.523 6.17203 98.937 6.20803C99.3134 6.24076 99.9426 6.25861 100.825 6.26159L103.149 6.26203L106.119 6.31603C106.785 6.31603 107.586 6.28003 108.522 6.20803C108.63 6.19003 108.756 6.18103 108.9 6.18103C109.332 6.18103 109.548 6.27103 109.548 6.45103C109.548 6.61303 109.395 6.69403 109.089 6.69403H108.63C107.82 6.69403 107.208 6.80203 106.794 7.01803C106.614 7.10803 106.281 7.75603 105.795 8.96203C105.579 9.46603 105.219 10.321 104.715 11.527L104.229 12.742C104.355 13.102 104.751 14.101 105.417 15.739C106.281 17.827 106.992 19.618 107.55 21.112C108.558 18.196 109.746 14.749 111.114 10.771C111.584 9.39756 111.9 8.42219 112.063 7.84493L112.12 7.63526C112.169 7.44682 112.194 7.32208 112.194 7.26103C112.194 6.91903 111.879 6.74803 111.249 6.74803C110.367 6.74803 109.926 6.64903 109.926 6.45103C109.926 6.27103 110.106 6.18103 110.466 6.18103C110.772 6.18103 111.015 6.19003 111.195 6.20803C111.591 6.24403 111.951 6.26203 112.275 6.26203L114.435 6.23503C114.975 6.23503 115.272 6.25753 115.326 6.30253C115.38 6.34753 115.407 6.39703 115.407 6.45103C115.407 6.61303 115.101 6.70303 114.489 6.72103C113.805 6.73903 113.35 6.96403 113.125 7.39603C112.9 7.82803 112.554 8.74603 112.086 10.15C111.276 12.616 110.556 14.713 109.926 16.441C108.846 19.393 107.865 22.246 106.983 25ZM102.231 7.15303C102.231 7.18903 102.762 8.74603 103.824 11.824C104.238 10.924 104.724 9.73603 105.282 8.26003C105.354 8.06203 105.462 7.80103 105.606 7.47703L105.66 7.26103C105.66 6.93703 105.102 6.77503 103.986 6.77503H103.662L103.203 6.80203C102.555 6.83803 102.231 6.95503 102.231 7.15303ZM118.512 25.324C120.096 25.324 121.419 24.7345 122.481 23.5555C123.543 22.3765 124.074 20.914 124.074 19.168C124.074 17.386 123.529 15.8965 122.44 14.6995C121.351 13.5025 119.997 12.904 118.377 12.904C116.775 12.904 115.438 13.498 114.367 14.686C113.296 15.874 112.761 17.368 112.761 19.168C112.761 20.914 113.31 22.3765 114.408 23.5555C115.506 24.7345 116.874 25.324 118.512 25.324ZM116.122 23.4205C116.725 24.4375 117.567 24.946 118.647 24.946C119.475 24.946 120.087 24.631 120.483 24.001C121.239 22.813 121.617 21.193 121.617 19.141C121.617 17.161 121.311 15.622 120.699 14.524C120.249 13.714 119.493 13.309 118.431 13.309C117.423 13.309 116.635 13.8265 116.068 14.8615C115.501 15.8965 115.218 17.332 115.218 19.168C115.218 20.986 115.519 22.4035 116.122 23.4205ZM131.04 25.054C131.274 25.054 131.391 24.991 131.391 24.865C131.391 24.757 131.292 24.685 131.094 24.649C130.32 24.631 129.856 24.595 129.703 24.541C129.55 24.487 129.474 24.352 129.474 24.136V18.79C129.474 16.792 129.681 15.424 130.095 14.686C130.455 14.056 130.887 13.741 131.391 13.741C131.787 13.741 131.985 13.876 131.985 14.146C131.985 14.218 131.904 14.344 131.742 14.524C131.58 14.704 131.499 14.92 131.499 15.172C131.499 15.46 131.607 15.6985 131.823 15.8875C132.039 16.0765 132.309 16.171 132.633 16.171C133.029 16.171 133.353 16.036 133.605 15.766C133.857 15.496 133.983 15.154 133.983 14.74C133.983 14.218 133.794 13.7815 133.416 13.4305C133.038 13.0795 132.561 12.904 131.985 12.904C130.941 12.904 130.131 13.534 129.555 14.794V14.254C129.555 13.822 129.519 13.39 129.447 12.958L129.231 13.039L128.88 13.201C128.072 13.5781 127.336 13.7671 126.671 13.768C126.641 13.7621 126.554 13.7518 126.409 13.737L126.315 13.7275C126.045 13.7005 125.775 13.687 125.505 13.687H125.316C125.136 13.687 125.046 13.75 125.046 13.876C125.046 14.002 125.154 14.065 125.37 14.065C126.018 14.083 126.49 14.1685 126.787 14.3215C127.084 14.4745 127.233 15.046 127.233 16.036V23.461C127.233 24.055 127.215 24.388 127.179 24.46C127.071 24.604 126.711 24.676 126.099 24.676H125.721C125.487 24.676 125.37 24.739 125.37 24.865C125.37 24.991 125.514 25.054 125.802 25.054C126.162 25.054 126.459 25.045 126.693 25.027C126.927 25.009 127.305 25 127.827 25C128.835 25 129.519 25.009 129.879 25.027C130.239 25.045 130.626 25.054 131.04 25.054ZM149.373 25.378C149.427 25.378 149.58 25.306 149.832 25.162C150.444 24.802 151.191 24.622 152.073 24.622H152.289C152.451 24.64 152.604 24.649 152.748 24.649H152.883C153.135 24.649 153.261 24.586 153.261 24.46C153.261 24.316 153.135 24.244 152.883 24.244C152.073 24.244 151.65 24.181 151.614 24.055C151.529 23.7676 151.485 21.7329 151.479 17.9509L151.479 7.88203C151.479 7.66603 151.488 7.41403 151.506 7.12603V6.55903C151.506 6.12703 151.416 5.91103 151.236 5.91103C151.182 5.91103 151.119 5.92903 151.047 5.96503C149.931 6.48703 149.103 6.73903 148.563 6.72103L147.591 6.69403C147.393 6.69403 147.294 6.77503 147.294 6.93703C147.294 7.09903 147.411 7.18003 147.645 7.18003C147.753 7.18003 148.068 7.15303 148.59 7.09903C148.806 7.08103 148.968 7.20703 149.076 7.47703C149.202 7.80103 149.265 8.64703 149.265 10.015V14.227C148.653 13.345 147.735 12.904 146.511 12.904C144.927 12.904 143.644 13.48 142.663 14.632C141.682 15.784 141.192 17.287 141.192 19.141C141.192 20.941 141.682 22.4215 142.663 23.5825C143.644 24.7435 144.891 25.324 146.403 25.324C147.465 25.324 148.383 24.955 149.157 24.217L149.13 25.054C149.13 25.27 149.211 25.378 149.373 25.378ZM145.363 24.3655C145.786 24.6805 146.223 24.838 146.673 24.838C147.231 24.838 147.735 24.6715 148.185 24.3385C148.635 24.0055 148.927 23.605 149.062 23.137C149.197 22.669 149.265 20.851 149.265 17.683C149.265 15.955 149.076 14.848 148.698 14.362C148.212 13.75 147.591 13.444 146.835 13.444C145.863 13.444 145.089 13.948 144.513 14.956C143.937 15.964 143.649 17.314 143.649 19.006C143.649 20.626 143.901 22.012 144.405 23.164C144.621 23.65 144.94 24.0505 145.363 24.3655Z" fill="#575757" />
    <path fill-rule="evenodd" clip-rule="evenodd" d="M99 30H154V34H100.539L99 30Z" fill="#C7E3DD" />
</svg>
