<svg width="89" height="67" viewBox="0 0 89 67" fill="none" xmlns="http://www.w3.org/2000/svg">
    <path fill-rule="evenodd" clip-rule="evenodd" d="M81.9533 3.66502C81.9533 3.69967 81.9192 3.66502 81.9192 3.66502L81.9533 3.59077C81.9533 3.63037 81.9885 3.66502 81.9533 3.66502Z" fill="white" />
    <path fill-rule="evenodd" clip-rule="evenodd" d="M80.2812 5.99956C80.3153 6.17886 80.2438 6.39501 80.0997 6.43241C79.9523 6.50226 79.8462 6.50226 79.7389 6.46486C79.5948 6.35816 79.525 6.21131 79.597 6.06941C79.6339 5.92256 79.7785 5.77846 79.9573 5.78066C80.1019 5.78066 80.2482 5.89011 80.2812 5.99956Z" fill="white" />
    <path fill-rule="evenodd" clip-rule="evenodd" d="M27.3147 20.8305C26.4496 21.1517 25.937 22.013 25.7533 22.8413C25.569 23.6702 25.6724 24.5359 25.7764 25.4038C26.0585 26.7023 26.377 28.0009 27.3455 29.053C27.6315 29.3418 28.0996 29.4188 28.4972 29.2741C28.8586 29.0976 29.221 28.739 29.2238 28.3061C29.1539 27.9453 29.0115 27.5823 28.7948 27.2562C28.33 26.7491 28.1155 26.0995 28.0479 25.4505C28.0154 24.6943 28.2712 24.0469 28.5995 23.4348C28.8558 22.788 29.1121 21.8849 28.7189 21.1985C28.3977 20.7656 27.8224 20.6512 27.3147 20.8305ZM29.2491 21.0214C29.4284 21.347 29.5329 21.7078 29.496 22.106C29.4212 22.6807 29.1649 23.2208 28.946 23.7609C28.7277 24.191 28.5462 24.6239 28.5412 25.1293C28.4675 25.7415 28.6809 26.3184 29.0742 26.7909C29.4674 27.3332 29.826 27.9475 29.6797 28.6691C29.5301 29.2813 28.9136 29.8186 28.3014 29.9605C27.2889 30.0634 26.5376 29.1207 25.9997 28.3617C25.7505 27.9266 25.5371 27.4564 25.36 26.9515C24.9338 25.6876 24.7616 24.2449 24.9833 22.8391L25.2038 22.1923C25.5327 21.4355 26.1141 20.572 26.9446 20.3256C27.3411 20.2184 27.7756 20.1485 28.2063 20.2233C28.6391 20.2976 28.9625 20.6584 29.2491 21.0214Z" fill="white" />
    <path fill-rule="evenodd" clip-rule="evenodd" d="M8.8188 38.7659C8.8144 39.4155 8.5603 39.9528 8.41125 40.5672C8.41125 40.928 8.40905 41.2514 8.4789 41.5775L8.4767 42.1897C8.3271 42.8018 8.2534 43.486 8.03175 44.0976C8.03175 44.135 7.9971 44.135 7.9619 44.0976L7.92505 43.9189C8.00205 43.3045 8.00425 42.6198 8.0081 41.9708C7.974 41.6474 8.04825 41.324 8.051 40.9632L8.1995 39.8808C8.34635 39.4853 8.4558 39.0893 8.56745 38.6565C8.6395 38.5124 8.8188 38.6587 8.8188 38.7659Z" fill="white" />
    <path fill-rule="evenodd" clip-rule="evenodd" d="M10.9431 39.2464C10.799 39.2442 10.6917 39.4235 10.6543 39.533C10.5443 39.8564 10.6873 40.182 10.9013 40.4355C11.1526 40.5081 11.4062 40.3662 11.5877 40.1869C11.734 39.9328 11.4084 39.896 11.3006 39.7513L10.9431 39.2464ZM11.9952 38.3131C11.7785 38.3483 11.5596 38.5622 11.4876 38.8136C11.5574 39.0693 11.448 39.3905 11.7714 39.5C11.916 39.5748 12.0601 39.5022 12.2042 39.3955C12.3857 39.1815 12.4226 38.8928 12.3527 38.604C12.3186 38.4577 12.174 38.3131 11.9952 38.3131ZM12.6794 38.3153C12.9302 38.6062 12.9632 39.0743 12.7817 39.3977C12.6002 39.6512 12.3813 39.9752 12.0574 39.9356C11.9485 40.1517 11.9831 40.4031 11.767 40.5472C11.404 40.7617 11.008 40.941 10.5751 40.7941C10.2517 40.6473 10.0724 40.287 10.0752 39.9262C10.1115 39.4934 10.3309 39.1672 10.6197 38.9181L10.9453 38.8114L10.9827 38.5226C11.1664 38.164 11.5272 37.9501 11.9254 37.9523C12.2136 37.9523 12.5001 38.0617 12.6794 38.3153Z" fill="white" />
    <path fill-rule="evenodd" clip-rule="evenodd" d="M9.89412 39.9603C9.88972 41.0053 9.48657 41.9062 9.30287 42.8786L9.11422 44.429C9.11202 44.6804 9.07462 44.9317 8.96572 45.1479C8.78587 45.1853 8.71382 45.0384 8.64177 44.929L8.60712 44.7497C8.61152 43.9214 8.65112 43.1277 8.87222 42.3715C9.01907 41.7967 9.38152 41.2913 9.45907 40.6791C9.53112 40.3931 9.49812 40.0301 9.67687 39.781C9.78687 39.7089 9.85947 39.8162 9.89412 39.9603Z" fill="white" />
    <path fill-rule="evenodd" clip-rule="evenodd" d="M11.5473 41.0881C11.4698 42.0957 11.1046 42.9966 10.7746 43.8948C10.5551 44.4723 10.6228 45.1565 10.7647 45.7356C10.8004 45.8803 10.8719 46.0244 10.8345 46.1685C10.7278 46.2037 10.5832 46.2037 10.5469 46.0942C10.2977 45.4452 10.086 44.7935 10.1976 44.0367C10.4182 42.957 11.1821 42.1309 11.368 41.0139C11.368 40.8692 11.5473 41.0139 11.5473 41.0881Z" fill="white" />
    <path fill-rule="evenodd" clip-rule="evenodd" d="M33.1773 42.3547C32.9936 42.4966 32.7054 42.7133 32.7054 42.9993C32.8093 43.2528 32.9512 43.6532 33.2774 43.7253C33.6382 43.7627 33.8917 43.4739 34.0732 43.2253C34.2201 42.9388 33.9687 42.683 33.9335 42.4289C33.7542 42.2128 33.4286 42.3195 33.1773 42.3547ZM32.5024 40.081C32.2835 40.3296 32.2461 40.763 32.3908 41.0512C32.4953 41.2701 32.6768 41.4868 32.8913 41.5214C33.1795 41.561 33.3637 41.3097 33.5084 41.093C33.6899 40.8048 33.6195 40.4088 33.4407 40.1552C33.2609 39.8296 32.7213 39.8296 32.5024 40.081ZM33.9082 40.3389C34.1222 40.7371 34.0111 41.2772 33.757 41.5984C33.7196 41.7799 33.9731 41.7799 34.0809 41.8916C34.3664 42.2524 34.5809 42.7221 34.4698 43.2275C34.4318 43.4789 34.3576 43.7649 34.1057 43.9095C33.7801 44.0883 33.3478 44.3028 32.9864 44.0839C32.5558 43.9024 32.3418 43.4673 32.3066 43.0367C32.2027 42.6759 32.3116 42.2777 32.6377 41.9917C32.6377 41.8476 32.421 41.8448 32.3512 41.7007C31.9904 41.3377 31.7412 40.8675 31.8881 40.3274C31.9623 40.076 32.0718 39.8599 32.2885 39.718C32.542 39.5755 32.8682 39.5035 33.1542 39.5755C33.515 39.6877 33.801 39.9787 33.9082 40.3389Z" fill="white" />
    <path fill-rule="evenodd" clip-rule="evenodd" d="M35.3322 44.0246C35.798 44.5669 35.9746 45.2186 36.2958 45.7956L36.5103 46.3731C36.7237 46.7729 36.9382 47.2058 37.3342 47.4621C37.6202 47.7508 37.9804 48.0418 38.1949 48.3674C38.1949 48.4746 38.1581 48.5835 38.1201 48.6539C37.7252 48.6539 37.4739 48.3624 37.1846 48.1089C36.54 47.4923 36.0373 46.8032 35.754 46.0095C35.5065 45.179 35.2233 44.3854 34.6854 43.6962L34.7206 43.5868C34.9741 43.6616 35.1529 43.8431 35.3322 44.0246Z" fill="white" />
    <path fill-rule="evenodd" clip-rule="evenodd" d="M74.8478 45.2419C75.4226 45.8585 75.7086 46.5801 75.6668 47.4458C75.6299 47.7345 75.4484 48.0205 75.5524 48.3467C75.6921 48.961 76.1227 49.4313 76.4819 49.9015C76.4819 49.9736 76.4819 50.0104 76.4461 50.0456C75.8692 49.6474 75.262 49.1029 75.0475 48.4165C74.9435 47.9116 75.2691 47.5156 75.1641 47.0107C75.0244 46.2869 74.9919 45.5675 74.4172 45.023C74.4172 44.951 74.454 44.9136 74.5239 44.8789C74.6685 44.9532 74.7406 45.1325 74.8478 45.2419Z" fill="white" />
    <path fill-rule="evenodd" clip-rule="evenodd" d="M34.1296 46.398C34.7764 46.9799 35.4215 47.5596 35.9589 48.2108C36.3175 48.7185 36.7476 49.1189 37.2877 49.4071C37.7178 49.5193 38.1138 49.8449 38.5098 50.0984C38.5796 50.2079 38.6891 50.352 38.6165 50.4966C38.4003 50.3872 38.2562 50.2425 38.039 50.1683C37.3927 49.9125 36.6711 49.8377 36.1332 49.3306C35.6657 48.9302 35.3445 48.4253 35.0954 47.9529C34.7368 47.4106 34.2335 46.9051 33.8408 46.3958C33.8782 46.2512 34.0575 46.326 34.1296 46.398Z" fill="white" />
    <path fill-rule="evenodd" clip-rule="evenodd" d="M9.31622 46.9904C9.17212 47.0603 9.17212 47.2418 9.16937 47.3837C9.16937 47.5305 9.31402 47.5652 9.38607 47.64C9.60057 47.6768 9.88877 47.6768 10.0356 47.5327C10.1423 47.4629 10.0725 47.3534 10.0356 47.2462C9.92837 46.9926 9.56977 46.8832 9.31622 46.9904ZM10.4712 46.9954C10.5427 47.1417 10.7226 47.2858 10.6478 47.5025C10.5389 47.7885 10.2122 47.9678 9.92342 48.003C9.49057 48.1075 9.12977 47.926 8.88117 47.6004C8.73652 47.3463 8.81132 46.986 8.92077 46.7347C9.13967 46.4833 9.49992 46.5229 9.82332 46.5598C10.0752 46.5972 10.2914 46.8133 10.4712 46.9954Z" fill="white" />
    <path fill-rule="evenodd" clip-rule="evenodd" d="M73.5008 47.6506C73.3913 47.7578 73.3913 47.9019 73.4265 48.0834C73.4612 48.1879 73.5332 48.337 73.6779 48.3722C73.7846 48.3722 73.894 48.3744 73.9683 48.2649C74.0387 48.1577 74.1129 47.9762 74.0409 47.8321C73.971 47.5807 73.6801 47.5065 73.5008 47.6506ZM74.3643 47.9063C74.3989 48.123 74.3967 48.3392 74.2895 48.5185C74.108 48.6631 73.9265 48.7698 73.7125 48.7676C73.459 48.6956 73.1702 48.5141 73.1378 48.2253C73.0311 48.0092 73.1378 47.7925 73.212 47.611C73.3237 47.4317 73.5382 47.3618 73.7197 47.3272C74.1151 47.2573 74.2246 47.655 74.3643 47.9063Z" fill="white" />
    <path fill-rule="evenodd" clip-rule="evenodd" d="M50.7816 47.9629C50.7469 48.1444 50.4928 48.2143 50.4186 48.3958C50.0534 49.2593 50.3366 50.2691 50.9466 50.8862L51.2705 51.2492C51.1259 51.319 50.9092 51.2816 50.7997 51.2816C50.3322 51.2794 50.1925 50.7371 49.9758 50.4115C49.7267 49.6899 49.8042 48.7868 50.2393 48.1791C50.3856 48.0702 50.5302 47.8887 50.7469 47.9283L50.7816 47.9629Z" fill="white" />
    <path fill-rule="evenodd" clip-rule="evenodd" d="M56.9288 51.2073C56.8568 51.2793 56.7495 51.3492 56.7121 51.4564C56.7847 51.4933 56.8942 51.4933 56.9635 51.4586C56.9635 51.3866 57.0405 51.2419 56.9288 51.2073ZM42.867 50.9163L42.7949 51.0258C42.7229 51.1677 42.5436 51.2397 42.504 51.419C42.6855 51.4564 42.9742 51.5285 43.0831 51.3492C43.0463 51.2073 43.0111 51.0258 42.867 50.9163ZM14.8153 50.6974C14.7779 50.6628 14.7059 50.588 14.6707 50.66C14.6338 50.9119 14.4501 51.1259 14.2708 51.3074C14.1982 51.342 14.2334 51.4146 14.3055 51.4146C14.4501 51.4168 14.5942 51.4515 14.7042 51.3096C14.7757 51.1281 14.8478 50.9141 14.8153 50.6974ZM12.8326 50.6138C12.7231 50.6859 12.5785 50.7931 12.5785 50.9026C12.6137 51.0093 12.6835 51.1539 12.793 51.1908C12.9371 51.1908 13.1532 51.3024 13.2605 51.1583C13.3325 51.0489 13.3353 50.9048 13.2979 50.8327C13.3001 50.5786 13.0113 50.544 12.8326 50.6138ZM81.3477 50.539C81.2751 50.5742 81.1288 50.6116 81.2009 50.7183L81.6667 51.4075C81.7388 51.4449 81.7756 51.4075 81.8108 51.3723C81.9197 51.1561 82.0319 50.9048 81.9225 50.6512C81.7432 50.5764 81.5292 50.5418 81.3477 50.539ZM83.1858 50.5137C83.1116 50.7299 83.3283 50.8393 83.3283 51.0208C83.4003 51.1655 83.3255 51.4515 83.5796 51.4889C83.831 51.3118 83.831 50.951 83.8332 50.6254C83.7655 50.3366 83.3651 50.4791 83.1858 50.5137ZM57.5476 50.3091C57.4409 50.3438 57.294 50.379 57.3314 50.5231C57.3639 50.8487 57.4359 51.1374 57.4337 51.4608C57.541 51.5329 57.6504 51.4608 57.7599 51.3888C58.0112 51.1396 58.0508 50.7068 57.9458 50.3812C57.8363 50.2365 57.657 50.4158 57.5476 50.3091ZM56.0703 50.2624C56.0329 50.2624 55.9977 50.2998 55.9977 50.3366L56.0675 50.8393L55.9933 51.4168L56.0279 51.4537C56.2424 51.3816 56.3887 51.1677 56.4982 50.9862C56.4982 50.7722 56.573 50.5555 56.5004 50.374C56.3937 50.2646 56.2144 50.2646 56.0703 50.2624ZM42.0431 50.1903C42.0057 50.297 42.0777 50.3344 42.0777 50.4065C42.185 50.588 42.0381 50.9119 42.2196 51.0208C42.471 50.8767 42.5804 50.5907 42.5832 50.302C42.4759 50.0484 42.2224 50.1183 42.0431 50.1903ZM13.9892 49.8994C13.8446 50.0066 13.6284 50.0435 13.6257 50.2206C13.7703 50.4395 13.877 50.621 14.0195 50.8371L14.0915 50.8745C14.2356 50.6952 14.2032 50.4065 14.168 50.1529C14.1333 50.0809 14.1333 49.862 13.9892 49.8994ZM15.1063 49.9038C14.9968 50.0853 15.1783 50.2299 15.213 50.374C15.2828 50.5555 15.2108 50.8069 15.318 50.9884C15.3527 50.9884 15.3901 50.9537 15.4247 50.9163C15.609 50.665 15.7184 50.3416 15.6112 50.0154C15.5391 49.7993 15.2504 49.8691 15.1063 49.9038ZM85.2087 50.0204C85.0619 50.055 85.0272 50.1997 84.9552 50.3091C84.8083 50.6303 85.3132 50.7068 85.3831 51.0302C85.4177 51.1396 85.3831 51.2815 85.525 51.3563C85.7785 51.2144 85.6718 50.8162 85.674 50.5649C85.5321 50.3812 85.4227 50.1271 85.2087 50.0204ZM43.1299 49.3312C43.0204 49.3312 42.911 49.4731 42.8763 49.5804C42.8389 49.7245 42.8367 49.9412 42.9434 50.0506C43.2674 50.1969 43.3763 50.5231 43.5908 50.7392C43.6628 50.7046 43.6628 50.5605 43.7002 50.4857C43.7024 50.0182 43.4885 49.62 43.1299 49.3312ZM49.132 45.9355C49.0253 45.9729 48.9159 46.0428 48.8785 46.1522C48.7344 46.3662 48.9857 46.5477 49.0952 46.7297C49.1645 46.7666 49.3091 46.7666 49.3812 46.6599C49.5253 46.5152 49.528 46.2639 49.4582 46.0824C49.3861 45.9729 49.2767 45.9355 49.132 45.9355ZM52.602 44.4043C52.4579 44.4395 52.3138 44.5814 52.2764 44.7255C52.1295 44.9791 52.3462 45.2678 52.4881 45.4845C52.5976 45.5566 52.7747 45.5962 52.9584 45.5241C53.1399 45.4515 53.1745 45.2376 53.2141 45.0561C53.2141 44.8394 53.1773 44.6579 53.0326 44.5138C52.8907 44.4043 52.7466 44.4043 52.602 44.4043ZM53.3632 43.6849C53.2889 43.8318 53.2537 43.9759 53.2889 44.1183C53.4704 44.2646 53.5403 44.5534 53.7916 44.5534C53.9357 44.5556 54.1172 44.4835 54.192 44.3416C54.2619 44.1227 54.1194 43.9412 54.087 43.7273C53.9055 43.5458 53.5447 43.543 53.3632 43.6849ZM30.476 41.728C30.2593 41.6186 30.0778 41.8347 29.9337 41.9772C29.7154 42.2285 29.8941 42.5541 30.036 42.8077C30.1807 42.987 30.3226 43.35 30.6108 43.2801C30.7923 43.1734 30.9716 43.0662 31.0464 42.8847C31.1927 42.5613 30.8693 42.3072 30.762 42.019L30.476 41.728ZM34.9794 51.5472C35.2797 51.5472 35.3171 51.4724 35.184 51.3448C34.6115 50.7651 34.0367 50.1854 33.6061 49.5342C33.1782 48.7009 32.6056 47.9419 32.0705 47.1087C31.3533 46.2034 30.602 45.2981 29.8848 44.3581C29.4893 43.8879 29.0609 43.4523 28.8843 42.91C28.4559 41.8232 28.7144 40.4944 28.4674 39.3377C28.3998 38.4346 27.9719 37.6762 27.2899 37.0591C26.8592 36.7335 26.3917 36.4051 25.8516 36.3309C24.695 37.0101 23.573 37.6179 22.2722 37.9715C21.588 38.1833 20.6855 37.9996 20.1773 38.6816C19.6702 39.2563 19.0905 39.7937 18.4387 40.1875C17.4262 40.7947 16.2723 41.0763 15.1156 41.288C14.8643 41.3205 14.6102 41.3903 14.394 41.535C13.7769 42.289 13.2302 43.0777 12.8672 43.9434L12.6087 45.0957C12.6065 45.275 12.4971 45.5285 12.6417 45.6726C13.0718 45.8569 13.5399 46.0032 13.9007 46.2919C14.4754 46.6549 14.8313 47.2715 15.0804 47.849L15.2597 47.9232C15.9813 48.1421 16.412 48.8313 16.6584 49.4803C16.8377 50.0946 16.6166 50.7068 16.3977 51.2469C16.3977 51.3189 16.3542 51.5098 16.4609 51.5472H34.9794ZM64.6508 36.426C62.5867 38.6161 60.5198 40.804 58.2719 42.8126C57.1125 43.7806 55.9542 44.7838 54.7948 45.7144C54.7596 45.7496 54.7222 45.8217 54.7948 45.8937C55.1529 45.9685 55.5159 46.078 55.8024 46.3315C56.4844 46.7688 56.8777 47.4926 57.0894 48.2142L57.6664 48.3979C58.0629 48.5447 58.2785 48.9776 58.3814 49.3758C58.7768 49.8086 58.993 50.3135 58.8791 50.8905C58.8395 51.1094 58.7207 51.3657 58.7185 51.5472H75.8549L75.7872 51.4493C75.466 51.0164 75.0007 50.7607 74.5679 50.4697L74.0652 49.89L73.8512 49.8878C73.4508 50.0297 72.9107 50.027 72.5895 49.6992C72.0494 49.2311 71.9823 48.5073 71.7678 47.8583C71.5214 47.316 71.4516 46.7385 71.3465 46.1242C71.2376 45.6539 71.3141 45.1144 71.1722 44.6815C71.0303 44.3554 70.9582 43.9577 70.7443 43.669C69.7433 42.1493 68.7054 40.6665 67.595 39.2167C66.6968 38.2394 65.8031 37.2615 64.7603 36.4612L64.6508 36.426ZM18.9486 34.8877C18.4437 34.7414 17.8293 34.7018 17.3613 34.9157C16.4582 35.3442 15.9835 36.2423 15.6552 37.1058C15.362 38.0414 15.1035 38.9791 14.955 39.9873C14.9523 40.0593 15.0271 40.1314 15.0991 40.1688C15.6739 40.2804 16.2514 40.1011 16.7585 39.924C17.336 39.7101 17.8431 39.3889 18.3854 39.0677C19.2907 38.5325 19.9798 37.6316 20.0563 36.624C20.0238 36.0839 19.8819 35.5416 19.4139 35.1786L18.9486 34.8877ZM44.4306 51.5472H48.0056L48.0243 51.4119C48.0243 51.2678 47.9523 51.1237 47.9149 50.9422C47.7383 50.4719 47.9242 49.9692 48.0683 49.5364C47.8896 49.1035 47.6751 48.6311 47.7147 48.0932C47.7169 47.8396 47.8637 47.6229 47.7565 47.3694C47.6844 47.1532 47.4705 47.0086 47.4705 46.7572C47.0794 45.6726 47.2653 44.3042 47.8846 43.3687C48.939 41.7165 50.2095 40.1358 51.1918 38.4462C51.9178 37.2615 52.3578 35.9305 53.3027 34.853C53.4121 34.7084 53.554 34.6017 53.554 34.457C53.0513 34.49 52.6542 34.704 52.2181 34.7738C51.3546 35.095 50.452 35.2694 49.5489 35.3717C48.576 35.5114 47.5656 35.507 46.5558 35.4652C46.123 35.4624 45.7622 35.3882 45.3667 35.3508L43.7068 35.1973C42.6272 35.0835 41.5822 34.8624 40.4998 34.8206C39.5274 34.7436 38.6639 34.413 37.763 34.1199C37.6909 34.1545 37.6909 34.264 37.6909 34.3388C37.6513 34.9856 37.5397 35.5977 37.2113 36.1004C37.0975 37.5783 36.7994 38.9841 36.2895 40.243C36.5739 41.0367 36.6041 41.9024 36.7438 42.7356L37.2416 44.0716C37.6002 44.758 37.956 45.4796 38.566 46.0615C39.4317 46.0659 40.4068 45.9988 41.1262 46.436C41.5915 46.6896 41.9149 47.1972 42.2361 47.6301C42.5254 47.7769 42.8131 47.8512 43.0622 48.0679C43.8889 48.7218 44.715 49.6271 44.4911 50.7816C44.4889 51.0302 44.3096 51.2117 44.3795 51.4284L44.4306 51.5472ZM55.6858 34.1782L55.1787 34.4295C54.3851 34.8926 54.0193 35.7209 53.5447 36.4029C52.784 37.5156 52.1647 38.7025 51.5454 39.8916C50.8172 41.1857 49.8003 42.333 49.0017 43.5551C48.6739 44.2393 48.2735 44.8861 48.2339 45.6776C48.2317 45.8965 48.2663 46.1126 48.3758 46.2567C48.5177 46.2221 48.4104 46.0406 48.4852 45.9311C48.5919 45.7892 48.7388 45.6451 48.9181 45.6121C49.1342 45.5054 49.3531 45.5753 49.5671 45.6869C49.8536 45.8684 49.8536 46.1918 49.8861 46.5174C49.8861 46.7341 49.742 46.9855 49.5231 47.0927C49.2695 47.1274 48.9483 47.0531 48.9087 47.3787C48.5435 47.9887 48.7201 48.8192 49.0792 49.3615C49.1881 49.5782 48.9692 49.7223 48.9318 49.9016C48.8202 50.4791 48.8785 51.177 49.4626 51.5472H52.756L52.7444 51.4355C52.6416 50.8608 52.7884 50.3179 53.0794 49.8878C52.8654 49.6689 52.7928 49.3802 52.7208 49.1288C52.6509 48.768 52.7978 48.5167 52.9793 48.2653C53.0865 48.1559 53.196 48.0492 53.3401 48.0838C53.3401 48.2307 53.196 48.2653 53.1591 48.41C53.0838 48.696 53.191 49.0221 53.2983 49.2757C53.3681 49.494 53.548 49.6733 53.6195 49.89C53.6195 49.9621 53.4748 50.0341 53.438 50.1062C53.2565 50.572 53.3912 51.2166 53.68 51.5472H55.1787C55.3833 51.5241 55.4532 51.2353 55.4884 51.0538C55.5973 50.7299 55.3833 50.4043 55.4928 50.0809C55.6022 50.0088 55.7463 49.9016 55.7485 49.7575C55.7837 49.5408 55.4972 49.4313 55.3905 49.2872C55.2464 49.2124 55.0671 49.2124 54.9576 49.0683C54.8526 48.7427 54.8179 48.3819 54.6012 48.1284C54.4571 48.0189 54.28 47.9469 54.0985 47.9469V47.9095C54.28 47.7302 54.5688 47.7676 54.8201 47.8418C55.1787 48.0954 55.358 48.5288 55.4999 48.889C55.8976 49.0359 56.2562 49.3989 56.3959 49.7971L57.008 50.0528C57.1543 49.9087 57.3012 49.7294 57.4084 49.5875C57.1917 49.2966 56.9057 49.1871 56.5796 49.1129C56.2584 49.0381 56.2584 48.6426 56.2237 48.3539C56.084 47.6675 55.3998 47.195 54.7877 47.0108C54.3548 46.9365 53.8868 46.8623 53.4539 47.0042C53.312 47.0042 53.2004 47.1483 53.0585 47.1461C52.9138 46.6434 53.1327 46.1385 53.4259 45.7425C53.6426 45.4543 53.8961 45.275 54.0776 44.9884C53.9709 44.9538 53.7894 44.951 53.6822 45.0209C53.5353 45.275 53.4985 45.561 53.2444 45.7755C52.9908 45.9916 52.558 45.9542 52.3088 45.8079C52.0179 45.6264 51.8039 45.3377 51.6994 45.0489C51.6268 44.6513 51.8831 44.3647 52.0993 44.0765C52.316 43.9341 52.6069 43.8994 52.8583 43.8296C52.8957 43.6481 53.0024 43.5034 53.1492 43.3615C53.4028 43.1454 53.7982 43.1129 54.1244 43.2218C54.3383 43.3313 54.4478 43.5826 54.5176 43.7993C54.5875 44.1623 54.478 44.5578 54.2591 44.8443H54.2965L55.5626 43.9154L58.1691 41.6208C59.5842 40.292 60.9598 38.9302 62.3397 37.5315C62.882 36.9568 63.4991 36.3842 63.9364 35.7C63.8643 35.628 63.7571 35.4811 63.6108 35.4811C62.7055 36.4145 61.6555 37.2384 60.7128 38.1343C59.6634 38.9956 58.5392 39.9636 57.4524 40.8596C56.7638 41.4321 56.1841 42.1515 55.4251 42.652C55.1694 42.7939 54.8806 43.0453 54.5572 42.9358C54.5572 42.7565 54.5946 42.5376 54.5594 42.3215C54.4945 41.4904 54.643 40.699 54.7899 39.9427C55.1529 39.1166 55.4834 38.2509 55.8486 37.3896C56.1071 36.382 56.3282 35.3717 56.8381 34.4735C56.8755 34.3641 56.9822 34.2596 56.9123 34.1501C56.4773 34.1479 56.0466 34.1083 55.6858 34.1782ZM61.5279 34.1012C60.8063 34.1688 60.0825 34.2387 59.3609 34.2711C58.8929 34.2689 58.388 34.1941 57.9573 34.264C56.8727 34.9064 56.9008 36.2027 56.6054 37.2851C56.205 37.9671 56.0213 38.7256 55.693 39.4076C55.4372 39.9477 55.2579 40.5224 55.2156 41.1368C55.1765 41.4255 55.1413 41.7467 55.2464 41.9651C56.4426 41.1065 57.5663 39.9592 58.6883 38.9907C59.0887 38.5606 59.6678 38.202 60.1034 37.7367C60.72 37.1641 61.4042 36.624 62.0213 36.0515C62.3491 35.6929 62.7451 35.4415 63.0008 35.0461C62.6774 34.6831 62.3562 34.4317 62.0328 34.0687C61.8535 33.9967 61.672 34.0638 61.5279 34.1012ZM33.4735 33.8823C32.8966 33.9873 32.4962 34.5989 32.4219 35.139C32.1981 36.4007 32.8779 37.4501 33.8112 38.2113C34.3486 38.7184 34.9981 38.9395 35.4634 39.5544H35.5707C35.9359 38.763 36.0129 37.8621 36.1619 36.9617C36.1641 36.4563 36.3478 35.8441 36.0987 35.4465C35.4893 34.6154 34.628 33.6727 33.4735 33.8823ZM69.108 32.735C68.4937 33.0562 68.0911 33.7404 68.0883 34.4598C68.0465 35.7209 68.5817 36.7703 69.2615 37.713C70.2273 39.1238 71.3746 40.4641 72.3778 41.8397H72.4498C72.3778 41.4068 72.2381 41.046 72.1341 40.6478C71.7403 39.4565 70.8438 38.4396 70.274 37.3572C69.9902 36.7775 69.487 36.2352 69.636 35.4767C69.7433 35.2254 70.032 35.0835 70.3576 35.0857C71.1139 35.2347 71.5049 36.0652 71.9356 36.6801C72.65 38.0183 73.0735 39.5005 74.0047 40.7666C74.4353 41.4536 74.7917 42.1746 75.4011 42.7565C75.6173 43.0101 75.8318 43.2988 76.1552 43.4803C76.0133 42.8313 75.62 42.289 75.4451 41.6395C75.0172 40.4108 74.591 39.1469 74.091 37.9182L73.4882 36.4728C72.8827 34.9179 71.7354 33.3961 70.2251 32.5975C69.8665 32.5232 69.4314 32.5557 69.108 32.735ZM48.3758 32.1927C48.0172 32.1184 47.652 32.2972 47.2917 32.367L47.2191 32.4396C47.5425 32.658 48.0128 32.6233 48.4082 32.6976C48.5897 32.7003 48.6992 32.4836 48.7712 32.3742C48.6645 32.2301 48.4852 32.2647 48.3758 32.1927ZM49.6001 32.5606C49.5627 32.5975 49.5627 32.6701 49.6325 32.7047C50.1748 32.8164 50.787 32.7839 51.3661 32.7141C51.6202 32.5348 51.9458 32.4275 52.1972 32.1762V32.1041C51.2616 31.9204 50.3239 32.0948 49.6001 32.5606ZM60.3498 31.8577C59.9522 31.9644 59.6634 32.2158 59.3351 32.3951C59.3004 32.4671 59.1932 32.537 59.263 32.6118C59.6216 32.7212 60.022 32.6162 60.3801 32.7234C60.7062 32.763 60.9922 33.0166 61.3882 32.9093L61.3904 32.8373C61.1369 32.6558 60.9224 32.4044 60.7084 32.2207C60.5643 32.1113 60.4917 31.932 60.3498 31.8577ZM57.827 31.5222C57.4293 31.6647 57.0317 31.9859 56.6681 32.1998C56.5966 32.2367 56.4514 32.3093 56.4514 32.3791C56.8496 32.488 57.3149 32.5276 57.7483 32.493L58.581 32.3555L59.0166 31.9974C59.0513 31.96 59.1233 31.8902 59.0513 31.8528C58.6531 31.6691 58.2598 31.597 57.827 31.5222ZM55.0506 31.2923C54.5083 31.5063 54.038 31.8253 53.5331 32.1113C53.5309 32.1487 53.5309 32.1833 53.5683 32.2207C54.2173 32.2603 54.8295 32.5161 55.479 32.3742C55.9119 32.1602 56.3095 31.7648 56.6725 31.4436C56.1308 31.4408 55.5555 31.4733 55.0506 31.2923ZM49.5 31.0476C49.3185 31.1174 49.1392 31.1873 48.9577 31.1152C48.5595 31.113 48.164 31.2175 47.8032 31.2896C47.696 31.3248 47.5145 31.3594 47.5145 31.4667C48.0892 31.7945 48.7388 31.8693 49.3883 31.839C49.7139 31.8038 49.9653 31.6251 50.2887 31.6619C50.4333 31.5921 50.5428 31.448 50.617 31.3039C50.617 31.2313 50.5076 31.2291 50.4729 31.1944C50.1468 31.1944 49.8212 31.1196 49.5 31.0476ZM45.0268 31.0223C44.7755 30.9849 44.5219 31.0921 44.3074 31.1642L44.3426 31.1988L45.3128 31.6713C45.7809 31.8555 46.2858 31.8946 46.7907 31.932V31.8973C46.6466 31.6064 46.2858 31.7131 46.0718 31.569C45.711 31.4221 45.3876 31.1317 45.0268 31.0223ZM53.0354 30.5938L52.8907 30.6659C52.3484 30.8078 51.8435 31.0223 51.3733 31.3083C51.3386 31.3435 51.227 31.3435 51.2638 31.4155C51.7319 31.6344 52.3809 31.6366 52.9237 31.5316C53.3566 31.4271 53.7542 31.2104 54.1524 30.9986C54.1893 30.9618 54.2965 30.9266 54.2245 30.8545L53.0354 30.5938ZM47.0145 30.4195C46.6185 30.4541 46.2929 30.524 45.8969 30.4844L45.3178 30.5894C45.3178 30.5894 45.2826 30.6263 45.3178 30.6637C45.6786 30.7731 46.002 30.9546 46.3628 31.1009C46.5421 31.1735 46.7582 31.0685 46.9744 31.1405L47.8775 30.7847L48.0243 30.6774L47.9869 30.6406C47.6635 30.568 47.3748 30.4217 47.0145 30.4195ZM59.2779 30.3381C58.8769 30.4822 58.5161 30.7313 58.2274 31.0173V31.0547C58.586 31.201 58.9814 31.2758 59.3796 31.3479C59.5589 31.3479 59.8075 31.6762 59.9544 31.3501L59.2779 30.3381ZM47.7752 29.919L47.5937 29.9888C47.5563 30.0262 47.5563 30.0609 47.5937 30.0983C47.8824 30.2072 48.2432 30.1747 48.5292 30.3194C48.5666 30.3194 48.6387 30.2473 48.6013 30.2121L47.7752 29.919ZM56.7171 29.9305C56.2122 30.1423 55.7419 30.4657 55.3069 30.7148C55.3069 30.8243 55.4136 30.7869 55.4856 30.8243C56.0279 30.8265 56.6027 30.9381 57.1081 30.7616C57.4359 30.6197 57.904 30.6565 58.2296 30.4052C58.2296 30.3705 58.3022 30.2985 58.2296 30.2259C57.7247 30.1142 57.1499 30.1467 56.7171 29.9305ZM50.8403 29.7534C50.226 29.8233 49.7557 30.1098 49.2486 30.431C49.2134 30.4679 49.2134 30.5031 49.2855 30.5377C49.8234 30.6846 50.4031 30.6543 50.98 30.7638C51.4855 30.6939 51.9178 30.5542 52.3534 30.3029V30.2682C52.2813 30.1588 52.2115 30.0141 52.0646 30.0141C51.6692 29.9025 51.2385 29.8282 50.8403 29.7534ZM54.45 29.3046C54.159 29.4465 53.8708 29.4812 53.6173 29.5884C53.4006 29.6957 53.1839 29.8024 53.0376 29.9817C53.2889 30.2006 53.724 30.0213 54.0105 30.1307C54.3015 30.205 54.5875 30.2424 54.841 30.3166C55.2717 30.1027 55.7095 29.8865 56.1396 29.6748C56.1792 29.6022 56.249 29.4933 56.1792 29.4581L55.4928 29.4559C55.132 29.4883 54.7739 29.4141 54.45 29.3046ZM42.4407 29.2414C42.2246 29.2045 41.9012 29.1297 41.7197 29.2716L41.971 29.6C42.6178 30.1076 43.3345 30.508 44.1633 30.6565C44.2354 30.6565 44.2728 30.5498 44.2728 30.4772C44.3448 30.3705 44.561 30.4052 44.5637 30.2633C44.0583 30.0796 43.5556 29.8233 43.0881 29.4603L42.4407 29.2414ZM44.028 29.1044C43.956 29.1765 43.7745 29.1765 43.7745 29.3206C44.2051 29.6489 44.71 29.9377 45.2479 30.084C45.5361 30.0515 45.8623 29.9795 46.151 29.9096V29.8722C45.6852 29.6187 45.2177 29.3998 44.8217 29.0742C44.5703 29.0021 44.2821 29.0692 44.028 29.1044ZM47.7801 28.9812C47.6333 29.0879 47.4193 29.0857 47.3797 29.2298C47.8846 29.4509 48.3895 29.6698 49.0391 29.6C49.2552 29.5279 49.3977 29.7116 49.6138 29.6022C49.7233 29.5323 49.8674 29.5323 49.9746 29.4256C49.9422 29.2788 49.7953 29.3162 49.6886 29.2441C49.5814 29.1693 49.7255 29.0274 49.6556 28.918C49.0792 28.7365 48.323 28.8019 47.7801 28.9812ZM58.4534 28.7112L58.0228 28.8899C57.7318 29.0324 57.4084 29.2111 57.1895 29.4278C57.2594 29.5351 57.4409 29.5351 57.5476 29.5719C57.981 29.6836 58.4837 29.793 58.9534 29.6533C58.7768 29.3651 58.6355 29.0368 58.4903 28.7134L58.4534 28.7112ZM46.3391 28.6133C45.9783 28.6457 45.6527 28.6809 45.3293 28.7876V28.8228C45.7946 29.1506 46.3369 29.3695 46.8028 29.6231C46.9095 29.6258 47.091 29.6979 47.163 29.556C46.9491 29.4091 46.6955 29.3349 46.4788 29.2254V29.1556C46.6603 28.902 46.9513 28.9416 47.168 28.7623C47.2026 28.7249 47.3473 28.6903 47.2747 28.6177C46.9887 28.5434 46.6279 28.5412 46.3391 28.6133ZM52.5068 28.6083C52.2879 28.6083 52.146 28.462 51.9645 28.462C51.6736 28.676 51.3502 28.748 51.024 28.8179C50.952 28.8531 50.8101 28.8877 50.8079 28.9972C51.3826 29.3602 52.1416 29.3998 52.8627 29.4047L53.2235 29.2628C53.405 29.1182 53.8378 29.1204 53.7317 28.7601C53.6937 28.6875 53.5865 28.6875 53.5144 28.6875C53.1888 28.7926 52.7928 28.7178 52.5068 28.6083ZM81.175 51.5472C81.1382 51.3657 80.9121 51.2238 80.8401 51.0769C80.768 50.8976 80.5145 50.9328 80.5887 50.7535C80.7702 50.3575 81.131 50.2508 81.4918 50.1458C81.6035 50.1089 81.7454 50.1458 81.89 50.0737C81.8922 49.8576 81.8202 49.6409 81.6777 49.4594C80.6701 48.6613 79.376 48.4375 78.2963 47.7835C77.9003 47.4926 77.5769 47.1296 77.3283 46.7341C77.2585 46.4432 76.9697 46.2617 76.9351 45.9729C76.8625 45.8288 76.7904 45.6473 76.8674 45.5054C76.9021 45.4702 76.9373 45.5401 77.0093 45.5423C77.44 46.0499 77.798 46.6643 78.3706 47.0273C78.9827 47.3556 79.5602 47.7186 80.2422 47.8649C80.9985 48.1586 81.7899 48.4864 82.3647 49.1756C82.5412 49.4643 82.6133 49.7899 82.6111 50.1507L82.4994 50.5814L82.3922 50.7255L82.3179 51.0511C82.3179 51.2304 82.1315 51.3657 82.1667 51.5472H82.9999C83.1116 51.1165 82.4972 50.8723 82.7183 50.4395C82.7904 50.2228 83.0071 50.1155 83.2254 50.0457C83.3327 49.9016 83.116 49.8642 83.0813 49.7547C82.5808 49.3917 82.5841 48.7796 82.2596 48.3445C82.1876 48.2004 82.0803 48.0932 82.1551 47.9491C82.5137 48.0585 82.6925 48.4562 82.907 48.7449C83.0489 49.1057 83.3723 49.3268 83.6957 49.5061C84.0889 49.8691 84.1984 50.3394 84.1912 50.8789C84.2638 51.1303 83.9635 51.3657 84.1428 51.5472C84.5031 51.5241 84.8782 51.661 84.9849 51.3167C84.9502 50.9906 84.6642 50.7024 84.3777 50.5555C84.3403 50.2668 84.5592 50.088 84.7033 49.8367V49.692C84.5267 49.3312 84.1307 49.1849 83.8073 48.9308C83.3745 48.6404 83.0907 48.1702 82.8047 47.7351C82.0501 46.7572 80.8566 47.6532 79.8836 47.3952C78.8782 46.7039 78.3079 45.6913 77.7353 44.7162C77.2348 43.8483 76.9164 42.9078 76.632 41.9326C76.2762 40.9228 76.1013 39.8382 75.8202 38.791C75.5381 37.4573 75.0755 36.1565 74.6119 34.8904C74.3633 34.2409 74.0069 33.5913 73.7951 32.9027C74.1559 32.5788 74.5189 32.2207 74.8473 31.8275C75.5359 30.9288 76.2971 30.0306 76.6623 28.9878C76.6276 28.8437 76.483 28.9136 76.3763 28.8784C76.2322 28.8041 76.269 28.5528 76.1249 28.5154C75.9434 28.9482 75.8692 29.4163 75.6855 29.8139C75.3566 30.7473 74.6328 31.5734 73.7973 32.1811C73.2902 32.5397 72.6407 32.5722 72.0285 32.6767C71.8844 32.7141 71.6677 32.6745 71.6309 32.8186C72.529 33.5451 73.0279 34.4851 73.6021 35.3557C74.173 36.547 74.6355 37.8131 75.059 39.0424C75.345 39.836 75.6294 40.6291 75.9478 41.3903L76.1271 41.8584C76.4087 42.8335 76.8394 43.7366 77.2678 44.6419C77.2678 44.6766 77.2304 44.7486 77.193 44.7486C76.835 44.6023 76.5831 44.2762 76.225 44.1299C75.2543 43.3687 74.3567 42.498 73.7137 41.486C72.7826 40.0731 72.287 38.521 71.5379 37.0734C71.286 36.6774 71.1441 36.2049 70.7487 35.8815C70.6046 35.7721 70.3901 35.6258 70.2091 35.7325C70.1019 35.9492 70.169 36.1653 70.241 36.3446C70.8488 37.3594 71.5654 38.3719 72.1732 39.3867C72.5312 40.0731 72.7804 40.8667 72.9921 41.6257C73.2391 42.817 73.3392 44.0435 73.4063 45.3074L73.3694 45.3421C73.1159 45.1237 73.1181 44.7998 73.013 44.5094L72.7617 43.8945C72.5477 43.4616 72.2639 43.0662 72.0472 42.6284C71.726 42.1609 71.2954 41.7258 71.0094 41.2182C70.5809 40.4966 70.0062 39.808 69.5057 39.1188C68.9331 38.323 68.3259 37.5271 67.8975 36.6218C67.6461 36.1516 67.5763 35.6467 67.4366 35.1412C67.3299 34.7084 67.3673 34.2755 67.4437 33.8427C67.4437 33.6287 67.6604 33.4472 67.6252 33.2305C67.1924 33.3004 66.8316 33.5149 66.4339 33.6936C65.6403 34.0874 64.6998 34.0478 63.7642 34.0781L63.5107 34.0753C63.6174 34.2546 63.7967 34.4383 63.976 34.583C64.8048 35.2369 65.6656 35.8166 66.4196 36.58C68.0674 38.3554 69.5733 40.2012 70.8603 42.1911C71.3256 43.059 72.0775 43.8202 72.2546 44.83C72.3591 45.2282 72.2848 45.6611 72.248 46.0565C72.2452 46.6714 72.4944 47.1763 72.8156 47.6834L72.8849 48.2956C72.9547 48.5497 73.134 48.8379 73.3832 49.0194C73.53 49.0942 73.7814 49.1288 73.9629 49.059C74.3237 48.9869 74.47 48.5937 74.542 48.3049C74.6168 48.0888 74.547 47.8721 74.619 47.6559L74.7609 47.9095C74.9028 48.2351 74.9006 48.5959 74.8984 48.9545C74.9705 49.3175 75.1498 49.571 75.4385 49.8246C76.1552 50.3696 76.8905 50.858 77.4631 51.5472H78.9503L78.9618 51.4658C78.964 50.8883 78.315 50.7046 77.9938 50.3416C77.9938 50.3064 77.9218 50.2343 77.9938 50.2343C78.3546 50.4532 78.7875 50.5275 79.1829 50.7442C79.5063 50.8558 79.7021 51.2584 79.8814 51.5472H81.175ZM56.1489 27.9428C56.0422 27.906 56.007 28.0501 55.8976 28.1221C55.4647 28.264 54.995 28.3691 54.5968 28.6551C54.5226 28.6925 54.4879 28.7645 54.5226 28.8366C54.8828 28.946 55.281 28.9114 55.6418 28.9504C56.0747 28.9532 56.4355 28.7018 56.8661 28.8833L57.4805 28.4923L57.4827 28.3828C57.0872 28.1293 56.6544 27.9824 56.1489 27.9428ZM40.3232 27.4638C40.2512 27.4638 40.2138 27.5727 40.2858 27.6425C40.5718 28.0407 41.0745 28.1876 41.3985 28.5154C41.6498 28.6248 41.9386 28.66 42.1921 28.555C41.7961 28.3361 41.5822 27.9753 41.3682 27.6123C41.0795 27.4308 40.684 27.3565 40.3232 27.4638ZM42.0546 27.3637C41.9826 27.3983 41.8731 27.3637 41.8379 27.4357C41.9078 27.7245 42.2317 27.906 42.4479 28.1243C42.7691 28.4505 43.1645 28.5968 43.5605 28.7436C43.8141 28.7062 44.0676 28.6017 44.319 28.6017C44.3564 28.6017 44.4636 28.6017 44.4284 28.5297C43.9978 28.2035 43.5303 27.9478 43.1717 27.5496C42.8466 27.4055 42.4501 27.4027 42.0546 27.3637ZM43.8212 27.3004C43.7492 27.3004 43.7492 27.373 43.7838 27.4099L44.3591 27.8801C44.5753 27.9896 44.7546 28.1711 44.9707 28.3179C45.4036 28.1386 45.909 28.2503 46.3419 28.143L46.4117 28.0732L46.3765 28.0336C45.5504 27.708 44.759 27.3076 43.8212 27.3004ZM53.8824 27.1376C53.3401 27.4214 52.7626 27.6359 52.2555 27.9593V27.994C52.7956 28.2151 53.4446 28.1804 54.0567 28.2569C54.4571 28.0061 54.8878 27.7547 55.3949 27.6849C55.3949 27.6497 55.5368 27.615 55.4675 27.5424L54.9274 27.4682C54.5666 27.3587 54.208 27.2845 53.8824 27.1376ZM57.8528 26.8698C57.3452 27.0122 56.7682 27.0095 56.37 27.3681C56.5493 27.5474 56.8381 27.5149 57.0894 27.659C57.4502 27.7333 57.7714 28.0941 58.2417 27.9544C58.2087 27.5941 58.0646 27.268 57.9947 26.8698H57.8528ZM77 26.9677C76.5671 26.8236 76.5996 27.3659 76.4203 27.5798C76.4879 27.7965 76.4533 28.0847 76.5952 28.2294C76.8113 28.1942 76.8861 27.9082 77.0676 27.8361C77.2491 27.6216 77.2838 27.3334 77.3954 27.0793C77.3591 27.0425 77.3234 27.0073 77.3234 27.0425C77.2139 27.1514 77.0698 27.0793 77 26.9677ZM41.2632 26.6399C41.0839 26.6025 40.8325 26.493 40.6164 26.6003C40.6164 26.779 40.7583 26.8885 40.8303 26.9979C41.0817 27.07 41.3352 27.0001 41.5871 26.9633C41.624 26.9281 41.7312 26.9303 41.6592 26.8214L41.2632 26.6399ZM42.2042 26.3555C42.1316 26.3555 42.0942 26.4281 42.0942 26.5002C42.3109 26.7163 42.4528 27.0771 42.8483 27.0425C42.9203 26.9352 43.1392 26.9748 43.1739 26.8654C42.8879 26.6118 42.5271 26.465 42.2042 26.3555ZM55.7304 25.8132C55.116 25.9903 54.5363 26.2395 53.9962 26.5607C53.9242 26.5975 53.922 26.6674 53.9566 26.7048C54.4967 26.9979 55.1831 26.9633 55.8673 26.9677C56.2655 26.6817 56.7006 26.5046 57.206 26.3627V26.2906C56.7726 25.9623 56.2353 25.9227 55.7304 25.8132ZM76.3229 25.5971C76.2107 25.7038 76.0688 25.811 76.0666 25.9551C76.1013 26.2813 76.1343 26.6767 76.2415 26.9677L76.2784 26.9303L76.6067 26.2092L76.4995 25.7764C76.4654 25.7038 76.4274 25.5971 76.3229 25.5971ZM56.3073 25.3831H56.3425C56.7402 25.5668 57.1362 25.7483 57.4964 25.9645C57.6389 26.0393 57.8176 26.1113 57.9991 26.0789C58.0019 25.646 58.1135 25.2478 58.1509 24.887C57.464 24.8474 56.815 24.9525 56.3073 25.3831ZM77.7309 24.8474C77.5863 25.0267 77.5494 25.2781 77.3327 25.42C77.1138 25.2759 77.0814 24.9151 76.8674 24.7336C76.7948 24.771 76.7558 24.8777 76.7206 24.9503C76.5391 25.2737 76.8603 25.5272 76.8977 25.8506C76.8949 25.9947 77.077 26.0695 77.0742 26.2136C77.1094 26.2857 77.1468 26.3929 77.2535 26.3583C77.3982 26.2136 77.473 25.9997 77.6539 25.8924C77.9449 25.6763 77.9075 25.3155 77.9471 24.9921C77.9845 24.8826 77.8426 24.5587 77.7309 24.8474ZM16.8074 23.7326L16.7354 23.6605C16.6259 23.6979 16.5539 23.842 16.4818 23.9119C15.9346 24.9547 15.4605 26.0343 15.3087 27.224C15.0502 28.4851 15.0804 29.9283 14.999 31.2247C14.9226 32.4512 14.5194 33.5308 13.8286 34.5016C12.8485 35.9354 11.1518 36.1076 9.74376 36.7148C9.49021 36.8567 9.20146 37.036 9.01776 37.3225C8.65476 37.7554 8.47326 38.2949 8.21696 38.7976L7.88696 39.9873C7.80996 40.8876 7.80501 41.8952 7.80061 42.8704C7.75881 43.6646 7.64716 44.4181 7.49811 45.1424C7.38866 45.6099 7.38371 46.1148 7.31166 46.5829C7.23246 47.9139 6.89971 49.4643 7.50746 50.66C7.68401 51.056 8.11466 51.3816 8.48261 51.5472H11.3613C11.5335 51.4212 11.6847 51.4751 11.7573 51.3305C11.7221 51.221 11.6875 51.149 11.6149 51.0769C11.3635 50.8206 11.2568 50.4972 11.187 50.1716C11.1149 49.9549 10.8658 49.8455 10.6843 49.7712C10.0369 49.3384 9.06176 49.5479 8.52441 48.8962C8.09376 48.3539 8.24501 47.5602 8.28241 46.9107C8.28461 46.5504 8.14271 46.2265 8.21476 45.9009C8.50571 45.9751 8.46611 46.3733 8.57336 46.59C8.74991 47.1296 8.45896 47.7071 8.67346 48.1746C9.06671 48.8285 9.78556 48.9754 10.5094 48.9077C11.0121 48.9099 11.4449 49.1987 11.6594 49.6337C11.8387 49.8152 12.0901 49.89 12.1968 50.1062C12.304 50.2134 12.232 50.4301 12.3739 50.467C12.5928 50.3603 12.881 50.2904 13.1351 50.2184L13.3166 50.0039L13.9656 49.5386C14.075 49.4665 13.9683 49.3571 13.8957 49.2476C13.6471 48.9589 13.321 48.7405 13.2137 48.3423C12.7506 47.6207 11.6688 47.7604 11.4196 46.8925C11.4196 46.8573 11.457 46.7853 11.5291 46.7853C11.9619 47.074 12.4272 47.2951 12.9321 47.4046C13.365 47.5883 13.6867 47.9859 13.7934 48.4562C14.0448 48.5656 14.3313 48.7471 14.4012 49.0359C14.438 49.2872 14.5799 49.5034 14.6872 49.7223C14.9039 49.6876 15.0133 49.543 15.1948 49.5083C15.3389 49.4363 15.5903 49.5083 15.6623 49.3664C15.6997 49.1497 15.4484 49.0403 15.3037 48.894C14.9457 48.7845 14.5128 48.5678 14.4078 48.1702C14.1564 47.6279 13.547 47.2275 13.0416 46.9739C12.5763 46.755 11.9993 46.5713 11.7848 46.029C11.6457 45.198 11.9735 44.4065 12.1605 43.6503C12.5251 42.5706 13.2511 41.6741 13.833 40.7017C14.0866 40.3079 14.3055 39.9477 14.4149 39.5517C14.5288 38.758 14.713 38.0018 14.8967 37.2824C15.3015 35.914 16.2816 34.2618 17.9058 34.0896C18.4459 34.0544 18.9508 34.2013 19.4188 34.385C20.3192 34.8596 20.6734 35.7979 20.7405 36.7357C20.7757 36.9524 20.6316 37.1685 20.7383 37.3478L21.3504 37.1707C22.5423 36.8891 23.7341 36.6449 24.7835 35.9283C24.8204 35.8909 24.8204 35.8188 24.7483 35.7836C24.1015 35.5625 23.4894 35.1995 22.9146 34.7623C22.0181 34.0011 21.0853 33.1678 20.3313 32.1905C19.1834 30.9222 18.4365 29.3673 17.8667 27.8152C17.5103 26.9468 17.2634 26.0068 17.0148 25.1059L16.8074 23.7326ZM76.2949 23.4675C76.148 23.9003 75.9687 24.3332 75.713 24.6918L75.7828 25.0174C75.8549 25.1246 75.8153 25.3408 75.9621 25.3408C76.1442 25.0548 76.2531 24.7292 76.3994 24.408C76.5809 24.1192 76.4021 23.7931 76.3295 23.4675H76.2949ZM57.9062 23.2997C57.5432 23.4416 57.1477 23.5115 56.7869 23.6908C56.6775 23.7628 56.496 23.8354 56.4261 23.9773C56.6401 24.0516 56.8914 24.0868 57.1081 24.2331L58.0085 24.3469C58.1531 24.3123 58.2252 24.4564 58.3324 24.3843C58.4067 24.0983 58.5161 23.8074 58.5904 23.5186C58.3764 23.4466 58.1575 23.2997 57.9062 23.2997ZM77.3465 22.3922C77.1303 22.6084 76.9835 22.8949 76.9114 23.1837C76.8746 23.3278 76.6925 23.363 76.7629 23.5071L77.2304 24.4822L77.3003 24.5565C77.5912 24.2331 77.4493 23.726 77.6655 23.3674L77.561 22.753C77.5258 22.6458 77.4933 22.4643 77.3465 22.3922ZM74.8264 21.8032C74.6449 21.9104 74.4656 21.9803 74.2841 22.0523V22.1222C74.498 22.3757 74.6421 22.6298 74.8935 22.8482C74.8962 22.56 74.9309 22.3086 75.0057 22.0573C74.9331 21.9825 74.9705 21.8032 74.8264 21.8032ZM71.973 22.6155C71.291 22.0364 70.4275 21.636 69.5244 21.8103C68.5866 21.95 67.8254 22.5946 67.0296 23.0599C65.9824 23.6677 64.7905 23.9493 63.5266 24.1236C62.9871 24.1561 62.4096 24.1913 61.8326 24.1121L60.5709 23.963L60.4642 24.0004C60.28 24.2864 60.0985 24.573 60.0638 24.9338C59.8752 25.8341 59.9076 26.8445 60.192 27.6755C60.6177 28.9763 61.2227 30.3144 62.3001 31.2197C62.8034 31.5827 63.3055 31.9111 63.9204 32.0579C64.4952 32.1322 65.0721 32.0277 65.6144 31.888C66.6616 31.5316 67.744 31.1433 68.8985 31.0036C69.4782 30.8617 70.1629 30.9381 70.7745 30.9777C71.1348 30.9777 71.4956 30.871 71.8564 30.838C72.2172 30.7682 72.578 30.6615 72.9063 30.4448C73.7368 29.947 74.2467 29.0835 74.3237 28.1452C74.3281 27.461 74.2956 26.7746 74.1185 26.1603C73.9068 24.9706 73.1923 23.9212 72.4058 23.0159L71.973 22.6155ZM75.9456 21.5568C75.7641 21.7707 75.3637 21.9478 75.4011 22.2734L75.2147 23.4999L75.3197 23.8233C75.3918 23.8607 75.499 24.0048 75.6107 23.9702C75.8268 23.5021 75.9737 22.9626 76.12 22.4571L76.0501 21.9544C76.0501 21.8103 76.0897 21.6288 75.9456 21.5568ZM76.4555 20.8005C76.3438 21.3054 76.483 21.8103 76.5902 22.2454C76.6276 22.318 76.5534 22.4945 76.6975 22.4621C76.9884 22.1359 77.0627 21.7427 77.2073 21.3472L77.1397 20.9468C77.0698 20.5882 76.6694 20.7653 76.4555 20.8005ZM18.59 20.3512C18.2319 20.316 18.013 20.6746 17.8667 20.9259C17.8266 21.6101 17.7529 22.2943 17.3519 22.8344C17.3844 23.7001 17.6687 24.4217 17.7732 25.2528C17.8783 25.8671 18.09 26.4441 18.2688 27.0238C18.5157 27.78 18.8369 28.4664 19.1229 29.193C19.8352 30.673 20.9825 32.0134 22.165 33.2074C22.8492 33.7915 23.5664 34.336 24.3573 34.7716C24.7901 34.9553 25.1834 35.1715 25.6162 35.2837C26.1217 35.2485 26.5892 35.2507 27.0594 35.1808C27.4202 35.0043 27.3878 34.6088 27.4246 34.248C27.39 33.9219 27.2107 33.5963 26.9967 33.3075C25.9935 32.1487 24.8088 31.3105 23.8408 30.117C22.9817 28.8135 22.2326 27.4753 21.9158 25.9601L21.846 25.5272C21.6694 24.7314 21.5297 23.9399 21.318 23.1441C20.8895 22.2756 20.6057 21.2658 19.707 20.6465C19.3836 20.4304 18.9882 20.3534 18.59 20.3512ZM73.3183 20.5673C73.211 20.6399 73.0279 20.6746 73.0279 20.7818C73.2435 20.9633 73.4228 21.147 73.6763 21.2911C73.7484 21.1492 73.6043 21.075 73.5322 21.0029C73.4629 20.8561 73.5344 20.5701 73.3183 20.5673ZM74.7983 20.107L74.2192 20.5723C74.184 20.8957 74.2164 21.2565 74.1422 21.5474L74.179 21.6541C74.4304 21.6569 74.5772 21.3335 74.8308 21.224C74.8308 20.8632 74.8682 20.4672 74.8357 20.107H74.7983ZM75.6316 19.86C75.592 19.86 75.5568 19.86 75.5199 19.8578C75.378 19.9299 75.2658 20.0371 75.2658 20.1812C75.2636 20.6141 75.3731 20.9402 75.3709 21.3725C75.3709 21.4077 75.4429 21.4798 75.5128 21.4451C75.6596 21.2658 75.8736 21.1217 75.9132 20.9072C75.8411 20.7956 75.6965 20.7609 75.6244 20.6515C75.5898 20.5794 75.5898 20.5442 75.6244 20.4722C75.6294 20.2555 75.7361 20.0767 75.6316 19.86ZM68.0933 19.6043C67.7671 19.6741 67.623 19.9601 67.3343 20.0322C67.3343 20.1394 67.4762 20.2489 67.5856 20.2857L68.4167 20.0019C68.4167 19.9299 68.4189 19.8226 68.3446 19.7858C68.1653 19.8925 68.1653 19.6763 68.0933 19.6043ZM71.0886 19.4013C70.9071 19.546 70.6904 19.6527 70.5809 19.832L71.0138 19.909C71.0858 19.7995 71.1232 19.6202 71.1232 19.4387L71.0886 19.4013ZM76.3554 19.2501C76.0991 19.5366 75.9896 19.9321 76.0622 20.3303C76.3108 20.3671 76.5649 20.2978 76.7833 20.1906C76.8185 20.0091 76.6766 19.865 76.6392 19.6829C76.5693 19.5388 76.4973 19.3227 76.3554 19.2501ZM69.3962 19.0686C69.1427 19.2831 68.8149 19.5344 68.8869 19.8947C69.031 19.9321 69.2103 19.9348 69.3198 19.8254C69.3544 19.6087 69.4292 19.3227 69.4314 19.0686H69.3962ZM71.9218 18.7567C71.7772 18.7941 71.6331 18.9014 71.5935 19.0455C71.6309 19.3342 71.5913 19.6576 71.5891 19.9464L71.6259 20.0531C71.7332 20.0905 71.8052 20.1625 71.9493 20.1625L71.9889 19.6598C71.9521 19.4783 72.243 19.227 71.9543 19.0829C71.9191 18.9734 71.9939 18.8662 71.9218 18.7567ZM74.7004 18.4471C74.4843 18.4823 74.2302 18.5521 74.014 18.6594C73.7951 19.0922 73.7907 19.6318 73.7533 20.1372C73.7533 20.2093 73.7533 20.2813 73.8254 20.2835C74.1141 19.9948 74.3699 19.7434 74.6933 19.5295L74.7307 19.42C74.6608 19.0966 74.8055 18.7732 74.8077 18.4471H74.7004ZM73.4019 18.2958C73.1483 18.4773 72.8942 18.6918 72.6407 18.8684C72.5664 19.3738 72.4223 19.8413 72.38 20.3462C72.4174 20.4188 72.4894 20.4557 72.5615 20.4188C72.7782 20.3138 72.9597 20.0976 73.2132 19.9904C73.288 19.4503 73.2902 18.908 73.5091 18.4053C73.5091 18.3684 73.4761 18.2612 73.4019 18.2958ZM68.1395 18.017C67.7792 18.1935 67.4135 18.4102 67.018 18.4801C66.9091 18.8035 66.9432 19.1643 66.9432 19.4899L67.0131 19.5971C67.4459 19.4921 67.7369 19.062 68.0977 18.7732L68.1747 18.089L68.1395 18.017ZM70.5556 17.9933C70.4088 18.0285 70.2647 18.1352 70.1574 18.2078L69.9363 18.9641C69.9017 19.1802 69.8269 19.4316 69.9341 19.6505C70.1855 19.6505 70.4016 19.4343 70.5837 19.255L70.6255 18.1006L70.5556 17.9933ZM66.5175 17.9004C66.264 18.0423 66.0104 18.2216 65.7563 18.3288L65.6843 18.3635L66.187 18.9454C66.259 18.9806 66.3311 19.1247 66.4361 19.0895C66.4405 18.694 66.5153 18.3332 66.5522 17.9724L66.5175 17.9004ZM69.1196 16.9043C68.866 17.0484 68.6845 17.335 68.7538 17.6584C68.5723 18.0912 68.64 18.5593 68.5679 19.029L68.6026 19.101C68.7098 19.101 68.7819 18.9943 68.8913 18.9223C69.036 18.743 69.2895 18.6011 69.1845 18.3123L69.2241 17.1931C69.1894 17.0836 69.2989 16.8697 69.1196 16.9043ZM72.9432 16.7784C72.7595 17.1744 72.5406 17.572 72.4663 18.0027C72.4641 18.1099 72.3943 18.254 72.5362 18.2936C72.7897 18.1495 73.0433 17.935 73.26 17.7189L73.695 17.5049L73.9513 17.0022C73.986 16.9296 74.0932 16.8229 74.0234 16.7135C73.6626 16.7481 73.2671 16.6739 72.9432 16.7784ZM74.7076 16.7179C74.454 17.0391 74.3446 17.3999 74.1603 17.7585C74.0883 17.8305 74.0184 18.012 74.1603 18.0841L74.9914 17.9075C75.1008 17.8723 75.3148 17.7678 75.422 17.9444C75.35 18.4146 75.1657 18.8128 75.1635 19.2781C75.2009 19.3876 75.1987 19.497 75.3082 19.497L75.7779 19.1384C75.8851 18.9943 76.1387 18.8871 76.1387 18.6731C75.6756 18.0192 75.2449 17.3696 74.8913 16.681C74.8539 16.6112 74.745 16.681 74.7076 16.7179ZM72.4383 16.4874C72.0775 16.4874 71.7519 16.7019 71.4285 16.7718L71.1001 17.3113C70.9907 17.742 70.9137 18.21 70.9467 18.6803C70.9467 18.7523 70.9813 18.8618 71.093 18.7892C71.4538 18.4658 71.8168 18.1077 72.1055 17.7117L72.2172 17.1744C72.2914 16.9577 72.4361 16.8136 72.5081 16.5622L72.4383 16.4874ZM66.8992 16.2432C66.7177 16.3131 66.4988 16.3505 66.3217 16.2757L65.9587 16.4902C65.7772 16.5996 65.5611 16.6321 65.3796 16.8136C65.4142 17.1348 65.3048 17.4604 65.3026 17.8212C65.3026 17.8932 65.3746 17.9658 65.4467 17.9658C65.9169 17.7513 66.4246 17.4653 66.8222 17.0721C66.8948 16.8207 66.897 16.5666 66.9713 16.3153C66.9713 16.2784 66.9344 16.2432 66.8992 16.2432ZM64.5183 16.1943C64.3742 16.3015 64.1553 16.3362 64.0134 16.4808L64.7652 17.3141L64.8719 17.3487L64.9115 16.9901C64.9115 16.9181 64.8048 16.9159 64.7322 16.9159C64.5881 16.8064 64.6233 16.5903 64.6233 16.411C64.6255 16.3389 64.6629 16.1943 64.5183 16.1943ZM59.1349 15.7334C58.3066 15.6217 57.3688 15.5799 56.7171 16.1178C56.2446 16.4412 56.0653 16.9813 55.9515 17.5209C55.9141 17.9169 55.9141 18.3145 55.9839 18.6753C56.3029 19.6136 57.0196 20.4117 57.8831 20.9188C59.142 21.5755 60.4736 22.0875 61.9514 22.241C62.7797 22.318 63.536 22.1755 64.295 22.0336C64.7652 21.8593 65.2701 21.7174 65.6683 21.4308C65.3471 20.9237 64.8444 20.4887 64.5205 19.981C63.9133 19.2572 63.2313 18.6033 62.5867 17.9147C61.8673 17.2629 61.0786 16.6458 60.2525 16.1734C59.8917 15.9897 59.5309 15.8456 59.1349 15.7334ZM70.3857 15.7218L69.878 16.2223C69.6223 16.6904 69.6569 17.302 69.5475 17.8421C69.5475 17.8795 69.5827 17.9515 69.6547 17.9537C70.1228 17.7024 70.7393 17.3443 70.8136 16.7322C70.8163 16.3714 70.9978 16.0848 71 15.7592L70.3857 15.7218ZM63.08 15.5381C63.0426 15.5728 63.0426 15.5728 63.0426 15.608C63.0778 15.6822 63.1147 15.7548 63.1504 15.6822C63.1873 15.6476 63.1873 15.5381 63.08 15.5381ZM54.5314 15.7081V15.7801C54.676 15.7477 54.8575 15.7103 54.9296 15.531C54.967 15.3869 55.2183 15.2796 55.2205 15.1003C54.8597 15.0261 54.6782 15.4589 54.5314 15.7081ZM80.8962 15.3055C80.8588 15.3055 80.8236 15.1982 80.7845 15.2703C80.6773 15.5216 80.5332 15.773 80.4584 16.0243C80.5656 16.1338 80.7097 16.2432 80.8538 16.2432C80.9264 15.955 81.0007 15.6311 80.8962 15.3055ZM68.3815 15.0613C68.1279 15.3473 67.837 15.5612 67.6208 15.8153L67.546 16.136C67.4019 16.7157 67.2881 17.2904 67.1786 17.8679C67.1759 17.9752 67.3227 17.9774 67.3948 17.94C67.7182 17.6886 68.1186 17.4395 68.3001 17.0787C68.3754 16.5039 68.3419 15.8896 68.5261 15.3495C68.5261 15.24 68.5261 15.0613 68.3815 15.0613ZM64.2367 14.9656C64.0552 15.075 63.8363 15.1823 63.657 15.3242L63.5453 16.0452C63.5431 16.0804 63.5431 16.1547 63.6174 16.1547C63.7967 16.0106 64.0156 15.9732 64.1949 15.7966C64.4484 15.5431 64.9561 15.3682 64.9209 14.9353C64.7047 14.9331 64.4534 15.0772 64.2367 14.9656ZM62.2165 14.8468C62.2539 14.9914 62.3606 15.0283 62.4679 15.0657L62.5075 14.8143C62.5427 14.5256 62.2539 14.7769 62.2165 14.8468ZM74.0355 14.728H73.9975C73.816 14.8374 73.7418 15.0541 73.7418 15.2703C73.5971 15.5568 73.3788 15.8082 73.2341 16.0964C73.1599 16.1316 73.1599 16.241 73.2693 16.241C73.6301 16.2432 74.0256 16.2806 74.3143 16.136C74.4238 16.1035 74.5679 16.0667 74.5679 15.9594L74.0355 14.728ZM72.4476 14.5795C72.0846 14.9007 71.8311 15.2961 71.6144 15.6547C71.5748 15.8709 71.3933 16.0524 71.5005 16.2317C71.9708 16.1992 72.2986 15.6965 72.8035 15.6267C73.0576 15.4474 73.3111 15.0866 73.3133 14.7632L72.4476 14.5795ZM71.2211 14.5723C71.0418 14.607 71.0044 14.7863 70.9698 14.8935C70.9302 15.0376 70.7162 15.1449 70.7833 15.3264C70.9302 15.3638 71.1095 15.2912 71.291 15.2219C71.4351 15.0052 71.654 14.789 71.726 14.5371C71.5467 14.5349 71.3652 14.607 71.2211 14.5723ZM61.446 15.3121C60.9411 15.0217 60.4384 14.7676 59.901 14.5839C58.6371 14.1439 57.0872 14.2792 56.0373 14.9958C55.1694 15.6058 54.8064 16.5413 54.5825 17.4791C54.5011 19.2781 55.3949 20.7631 56.7963 21.8153L57.5151 22.2872C59.026 23.0533 60.6804 23.4955 62.5564 23.5049C63.2428 23.4372 63.9969 23.5115 64.6508 23.2975C65.8405 23.0533 66.8525 22.2294 67.9745 21.6937C68.5542 21.3725 69.2384 21.3032 69.8879 21.1608L70.7184 21.24C71.7981 21.5705 72.8035 22.2619 73.4833 23.3091C73.9161 23.8514 74.1631 24.4311 74.4469 25.0454C74.6636 25.6251 74.7681 26.1999 74.8704 26.8142L74.9727 27.8614C74.9683 29.0505 74.4942 30.1307 73.5157 30.8105C72.5736 31.5618 71.2772 31.5178 70.0507 31.4408C68.8963 31.4364 67.9211 31.7923 66.9108 32.0739C65.901 32.5023 64.7438 32.8912 63.5921 32.5975C62.5097 32.2301 61.4696 31.4689 60.825 30.4563C60.3966 29.6605 59.9335 28.8272 59.7195 27.9269L59.5446 27.4192C59.2982 26.3 59.34 24.9316 59.8504 23.9234C59.7074 23.7419 59.4539 23.8118 59.3098 23.7419L59.1651 23.7749C58.872 24.496 58.7603 25.3248 58.7185 26.1531L58.7532 26.9121C58.856 27.8477 59.2119 28.753 59.5683 29.5835C60.1755 30.596 60.8201 31.6806 61.8255 32.372C62.7588 33.1332 64.0205 33.538 65.3191 33.2564C65.896 33.0793 66.5082 32.9748 67.0879 32.6882C68.0256 32.4396 68.9309 32.0486 69.9759 32.0904C70.807 32.202 71.6705 32.0623 72.501 31.96C73.9816 31.7158 75.108 30.2424 75.4754 28.874C75.6943 28.2272 75.6618 27.4682 75.6316 26.7466C75.5265 25.7368 75.1333 24.8337 74.7054 23.9306C74.135 22.9158 73.3832 21.8664 72.3778 21.1399C71.9471 20.8489 71.4769 20.6674 71.0116 20.5189C70.29 20.3721 69.5315 20.4397 68.8473 20.5442C67.7275 20.7538 66.8222 21.4358 65.8449 22.043C64.3995 22.9367 62.4514 22.9994 60.7222 22.7019C59.3516 22.406 58.0926 21.8593 56.9453 21.0585C55.8305 20.151 55.0434 18.8849 55.3041 17.3718C55.4158 16.6156 55.8536 15.8967 56.5752 15.4683C58.025 14.5371 59.9681 15.1262 61.2254 16.0337L62.9123 17.4142C64.2064 18.4636 65.2096 19.8413 66.3916 21.0728C66.5709 20.9655 66.7898 20.8957 66.9344 20.7164L66.2893 19.9557C65.4285 18.8337 64.4253 17.9235 63.4199 16.8741C62.9893 16.5485 62.596 16.1129 62.1654 15.8219L61.446 15.3121ZM66.4042 14.2209C66.1496 14.4002 65.8614 14.5421 65.61 14.684C65.5704 14.9007 65.4632 15.0448 65.3889 15.2263C65.2795 15.5497 65.2047 15.8731 65.1304 16.1965C65.0952 16.2691 65.1651 16.3059 65.2377 16.3059C65.6727 16.164 66.0335 15.8406 66.3267 15.5172C66.3641 15.0844 66.4361 14.7258 66.5131 14.3281C66.5131 14.2583 66.5131 14.1835 66.4042 14.2209ZM54.7921 13.9437C54.3966 14.0509 54.0358 14.3001 53.6376 14.4794L53.3819 15.0888L53.4171 15.1262C53.7427 15.091 54.0314 14.805 54.3548 14.7329C54.6084 14.6279 54.7899 14.3771 54.7921 14.0883V13.9437ZM60.8525 13.5785L60.2734 13.8645V13.9371C60.7084 14.0465 61.067 14.3023 61.4625 14.4464C61.5345 14.3045 61.6093 14.195 61.5719 14.0135H61.43C61.2458 13.9767 61.1039 14.1208 60.9576 14.0487C60.8503 13.9393 61.034 13.6159 60.8525 13.5785ZM62.9101 13.518C62.6213 13.4806 62.3678 13.7297 62.1142 13.8018C62.0048 13.9464 62.0048 14.1252 62.0422 14.3072C62.2567 14.2698 62.4728 14.1279 62.7264 14.0927C62.7984 13.9134 62.9079 13.7693 62.9447 13.59L62.9101 13.518ZM68.2814 13.2947C68.0652 13.5086 67.8117 13.6879 67.5581 13.8298C67.3788 13.9371 67.1973 13.9717 67.0527 14.079C66.9432 14.5839 66.9036 15.1262 66.8646 15.6311C67.0807 15.6311 67.2622 15.487 67.4069 15.3429C67.7325 15.0217 68.0234 14.6631 68.349 14.3023L68.354 13.4014C68.354 13.3645 68.3562 13.2947 68.2814 13.2947ZM70.12 13.7715C69.8643 14.2022 69.4314 14.5608 69.0684 14.8468L68.9518 16.4693H68.987C69.35 16.1481 69.7108 15.8615 70.004 15.4661C70.1134 15.2147 70.3296 15.0354 70.5837 14.8215C70.9093 14.4607 70.2597 14.6026 70.1552 14.3859C70.0084 13.9508 70.4808 13.6296 70.5182 13.2314C70.197 13.1594 70.2295 13.5922 70.12 13.7715ZM56.7105 13.1247C56.4217 13.1225 56.1308 13.2292 55.842 13.2644C55.5885 13.5878 55.479 13.9833 55.3322 14.3419L55.33 14.4887C55.4394 14.5234 55.5489 14.4513 55.6556 14.4161C55.8371 14.3815 56.0884 14.4189 56.2353 14.3116C56.4146 13.953 56.5636 13.5554 56.7451 13.1968L56.7105 13.1247ZM57.6455 13.0923C57.5036 13.1291 57.4293 13.2716 57.2847 13.2364C57.1758 13.4503 56.9937 13.6296 57.0663 13.8485L58.1135 13.6016L58.1509 13.1319C58.0459 12.9498 57.7923 13.0571 57.6455 13.0923ZM73.574 12.9245C73.3227 13.0664 73.0295 13.2457 72.8876 13.4993C72.8128 13.7506 72.5246 13.8925 72.5219 14.1092C72.9179 14.3281 73.53 14.3677 73.893 14.0438L73.7159 13.1407C73.6813 13.0686 73.6835 12.9245 73.574 12.9245ZM79.4667 12.6314C79.211 13.0268 78.8854 13.4201 78.8084 13.9228C78.8804 14.2489 79.2786 14.2885 79.5278 14.47L79.5998 14.4326L79.5344 13.7831C79.4623 13.4228 79.5366 12.9922 79.4667 12.6314ZM82.39 12.4658L82.2783 12.4988C82.2041 12.8618 82.0594 13.1852 82.0198 13.5807C82.0198 13.6901 82.0198 13.7974 82.1645 13.76C82.5275 13.5829 82.781 13.1874 83.0698 12.8662C83.1072 12.8294 83.144 12.7221 83.072 12.6501L82.39 12.4658ZM72.0032 12.4125C71.4235 12.8409 70.9164 13.4157 70.5881 14.0625C70.5859 14.1345 70.6601 14.0999 70.6953 14.1345C71.2002 14.1021 71.7051 14.1043 72.1402 13.8903C72.3943 13.5317 72.6852 13.1715 72.9734 12.7777L72.9366 12.7408C72.65 12.6314 72.3266 12.5219 72.0032 12.4125ZM66.7364 12.4196L66.704 12.3476C66.2684 12.6336 65.7981 12.7408 65.3284 12.9526C65.219 13.4201 65.0699 13.925 64.9258 14.3556C65.1744 14.4304 65.3213 14.2165 65.5402 14.1439L66.627 13.1759L66.7364 12.4196ZM65.0419 12.3008L65.0072 12.2662C64.8626 12.3729 64.7542 12.5522 64.6464 12.6594C64.246 12.9108 63.8852 13.1269 63.5222 13.4135C63.4128 13.7347 63.2659 14.0251 63.1917 14.349C63.157 14.5652 63.0822 14.7797 63.1543 14.9958C63.3341 14.998 63.4084 14.8539 63.5151 14.7467C63.5899 14.7098 63.6966 14.7467 63.8038 14.6768L64.4204 14.1741C64.5672 13.6714 64.6442 13.1643 64.9676 12.7337L65.0419 12.3008ZM59.1629 12.4867C58.9836 12.594 58.8021 12.7034 58.658 12.8107C58.586 13.0268 58.5838 13.3156 58.6905 13.4949C58.8698 13.4971 59.0166 13.353 59.1981 13.2457C59.5589 13.1038 59.4539 12.671 59.6354 12.3822C59.6728 11.9868 59.2724 12.38 59.1629 12.4867ZM70.8834 12.1892C70.8834 12.4405 70.4506 12.7639 70.8114 12.8734L71.3889 12.3707C71.4257 12.3355 71.4631 12.2634 71.4285 12.1914C71.2442 12.1892 71.0303 12.0819 70.8834 12.1892ZM57.3292 12.0099C57.0751 12.154 56.8568 12.2959 56.6753 12.5126V12.5846H56.9635C57.1081 12.5126 57.3617 12.5148 57.3617 12.2612C57.327 12.1892 57.4359 12.0445 57.3292 12.0099ZM80.6212 11.9142L80.5865 11.9494C80.5513 12.0935 80.6932 12.2029 80.8027 12.3146C80.8725 12.3844 81.0172 12.3498 81.0914 12.2777C81.3081 12.1331 81.3428 12.4592 81.5221 12.5335C81.6315 12.5335 81.8108 12.5709 81.9175 12.4636C81.9549 12.3894 81.9549 12.2475 81.8477 12.2101C81.4522 12.1006 81.0568 11.9516 80.6212 11.9142ZM69.9506 11.7888C69.8434 11.7514 69.7339 11.8586 69.6619 11.8933C69.0475 12.1078 69.0426 12.792 68.8611 13.2969C68.8237 13.5856 68.7846 13.909 68.8215 14.1978H68.8913C69.2175 13.9464 69.4358 13.5878 69.6899 13.2644C69.9061 12.8684 70.2344 12.473 70.4555 12.0423C70.3483 11.9703 70.1646 11.9703 70.0573 11.9307L69.9506 11.7888ZM60.9735 11.6326C60.72 11.7745 60.4664 11.8443 60.2475 12.0264C60.0314 12.4218 59.994 12.8525 59.9918 13.2853C59.9918 13.3574 60.0242 13.4646 60.1337 13.3948C60.4945 13.2897 60.748 12.9289 61.0764 12.7502C61.1831 12.4988 61.3299 12.2475 61.3673 11.9587H61.2601C61.116 11.8867 61.0808 11.7052 60.9735 11.6326ZM79.1455 11.6562C78.6758 12.0841 78.4195 12.6594 78.0565 13.1291C77.9075 13.9184 78.1192 14.6444 78.2611 15.366C78.4036 15.7988 78.8337 15.9083 79.1598 16.1272C79.4458 16.3087 79.8066 16.3455 80.0954 16.5644C80.2373 16.6018 80.4166 16.7459 80.5634 16.6739C79.9513 16.1668 79.2715 15.7312 78.694 15.1867C78.5174 14.6818 78.3057 14.1395 78.4151 13.562C78.5642 13.1319 78.815 12.6985 79.1087 12.303C79.2528 12.0891 79.5041 11.945 79.6482 11.7305C79.5063 11.6188 79.2902 11.5116 79.1455 11.6562ZM62.2352 11.7816L61.8326 12.3938C61.688 12.7172 61.5043 13.0059 61.4669 13.3645C61.4669 13.474 61.5395 13.546 61.6115 13.5108C62.0092 13.3315 62.4074 13.155 62.7704 12.8684L62.9871 12.2563C63.0613 11.9307 63.245 11.5699 63.3176 11.2487C62.9568 11.4258 62.596 11.5677 62.2352 11.7816ZM68.5844 10.9137C68.2583 11.093 67.9701 11.307 67.6813 11.5209C67.4602 12.0264 67.2435 12.5313 67.1671 13.0708C67.1671 13.1781 67.1319 13.3227 67.2738 13.3596C67.7792 13.2177 68.1422 12.6803 68.5052 12.2497C68.5421 11.8515 68.5448 11.4186 68.6565 11.0232C68.6565 10.9511 68.6191 10.9159 68.5844 10.9137ZM73.0785 11.2278L72.7551 11.5143C72.6082 11.7305 72.3173 11.8003 72.2452 12.017C72.4245 12.1259 72.5692 12.1985 72.7501 12.2332C72.9993 12.2728 73.3601 12.4196 73.5416 12.2381C73.5784 11.8421 73.4717 11.5165 73.5113 11.1579C73.5135 10.7251 73.1505 11.1183 73.0785 11.2278ZM81.6755 10.9462C81.2779 10.8719 80.8098 10.8345 80.5563 11.1205C80.4842 11.1931 80.5167 11.3026 80.5887 11.3746C81.1684 11.5209 81.7432 11.67 82.3201 11.8515C82.7161 11.9631 83.0395 12.2519 83.4702 12.2541C83.5422 12.2541 83.6143 12.2194 83.6143 12.11C83.5818 11.9681 83.4003 11.9653 83.3283 11.9285C82.7882 11.8537 82.4648 11.456 82.0715 11.1299L81.6755 10.9462ZM64.4743 11.109C64.2928 11.2536 64.0739 11.2509 63.8946 11.3603C63.7109 11.791 63.4573 12.1842 63.3479 12.6545C63.3451 12.7265 63.2753 12.836 63.3803 12.836C63.7059 12.7639 63.96 12.4405 64.2878 12.2612C64.5414 12.0473 64.686 11.7585 64.9742 11.5814C65.373 11.4027 65.3026 10.8972 65.412 10.5738C65.0886 10.7509 64.8004 10.9671 64.4743 11.109ZM59.5727 10.29C59.0304 10.6833 58.4881 11.0419 58.053 11.4725C57.9062 11.8328 57.7621 12.1914 57.7945 12.5868C57.9738 12.6264 58.1207 12.4449 58.2972 12.4125C58.5882 12.231 58.8417 12.0539 59.0953 11.8377C59.1327 11.4791 59.3169 11.1904 59.3917 10.8301C59.4258 10.6508 59.5727 10.4715 59.5727 10.29ZM72.0472 10.3549C71.5423 10.6415 71.1095 10.9995 70.6717 11.4654C70.637 11.5028 70.5996 11.5748 70.6717 11.6469C71.0699 11.7211 71.5379 11.7239 71.9708 11.654C72.331 11.5116 72.5873 11.0809 72.8761 10.7927C72.6247 10.6112 72.3382 10.4297 72.0472 10.3549ZM85.5393 10.0293C85.4276 10.1734 85.355 10.3181 85.3528 10.4968C85.3182 10.7135 85.2087 10.895 85.0272 10.9649C84.7385 11.1068 84.9178 11.505 84.6642 11.6491C84.4101 11.8262 84.1566 12.0401 84.0471 12.2937C84.0125 12.3311 84.0471 12.4009 84.1192 12.4009C84.3359 12.4405 84.5498 12.3685 84.7335 12.1892C85.0971 11.7585 85.388 11.3257 85.6416 10.823C85.7136 10.6437 85.8973 10.4644 85.7879 10.246C85.7532 10.1756 85.646 10.0315 85.5393 10.0293ZM70.3576 9.80603L69.5618 10.2713C69.0893 10.5205 69.1938 11.1348 69.0871 11.5655L69.1218 11.6749C69.3385 11.6749 69.4452 11.4236 69.6267 11.3163L70.2806 10.9577L71.5121 10.064L71.4747 10.0293C71.077 9.98973 70.7531 9.77303 70.3576 9.80603ZM61.7765 9.50793C61.3415 9.68723 60.9108 9.75708 60.4758 9.89898C60.0407 10.3643 59.8196 10.9418 59.675 11.5539C59.675 11.626 59.747 11.6606 59.8169 11.626C60.2151 11.4489 60.6501 11.3416 60.9763 10.9836C61.1578 10.7669 61.4812 10.8043 61.5554 10.5155C61.6649 10.2295 61.7369 9.90338 61.8491 9.61738C61.8491 9.54533 61.8491 9.47328 61.7765 9.50793ZM81.6805 9.50573C81.6106 9.54038 81.5012 9.61243 81.5732 9.68503L82.3647 10.0128C82.7579 10.2317 83.1908 10.5227 83.5142 10.8483C83.7655 11.0298 83.9795 11.4654 84.3403 11.2509C84.3777 11.142 84.2341 11.0325 84.1984 10.9231C83.4795 10.2339 82.7645 9.14933 81.6805 9.50573ZM73.7858 9.28243C73.6417 9.31928 73.5322 9.35448 73.425 9.46118C73.0642 9.53103 72.7364 9.67568 72.4476 9.85223L72.4102 9.99688C72.5917 10.213 72.9157 10.2504 73.1318 10.3973C73.3111 10.4363 73.4904 10.581 73.6345 10.3995C73.7093 10.0761 73.7841 9.71748 73.8578 9.35448L73.7858 9.28243ZM63.9067 8.76323C63.4012 9.04703 62.8963 9.29838 62.4607 9.69163C62.3117 10.2317 61.9861 10.6998 61.8046 11.2393L61.8024 11.3488C62.0537 11.2767 62.2726 11.2069 62.491 11.0996C62.887 10.7762 63.2846 10.4902 63.5783 10.0942L63.6482 9.91548C63.723 9.51948 63.8341 9.15868 63.9067 8.76323ZM67.623 8.78193C67.1484 9.35668 66.6083 9.89403 65.9917 10.2878L65.989 10.6481C65.8427 11.0089 65.6612 11.3301 65.5864 11.7283L65.5842 12.1958L65.6194 12.3052C65.8009 12.3426 65.9103 12.2332 66.0522 12.1287C66.1985 11.9472 66.4174 11.912 66.5247 11.7327C66.7408 11.5165 67.0318 11.3026 67.2133 11.0881C67.2529 10.2576 67.4393 9.50353 67.6951 8.78193C67.6951 8.70988 67.623 8.78193 67.623 8.78193ZM68.2698 8.74893L68.2352 8.67688C68.1257 8.78413 68.0883 8.96563 68.0883 9.10973C67.9068 9.54038 67.7952 10.0084 67.793 10.4787C67.793 10.6228 67.7182 10.8021 67.8628 10.8395C68.2979 10.7696 68.5888 10.3016 68.9496 10.0502C69.1317 9.69163 69.8879 9.62453 69.641 9.11688C69.4963 9.07948 69.3869 9.15208 69.2802 9.18673L68.591 9.50793C68.519 9.54258 68.4117 9.57998 68.3397 9.47053L68.2698 8.74893ZM71.9493 8.44423C71.6259 8.73078 71.2629 8.98213 71.0094 9.34018C71.1166 9.44963 71.335 9.41498 71.4769 9.44963C71.5863 9.48703 71.5863 9.66853 71.7282 9.63113L72.8849 9.09818L73.0295 8.99148C72.8876 8.80998 72.6341 8.70053 72.4196 8.59108C72.2403 8.59108 72.1341 8.44423 71.9493 8.44423ZM83.8519 8.47008C83.5653 8.32543 83.1677 8.06968 82.8437 8.28363C82.8437 8.35568 82.8437 8.42828 82.8789 8.42828C83.633 8.68623 84.2798 9.30333 84.8177 9.88028C84.8897 9.95453 84.997 9.91988 85.069 9.84783C85.2505 9.41498 84.6406 9.15868 84.4244 8.87048L83.8519 8.47008ZM65.6051 8.05098L65.1002 8.33753C64.9209 8.44423 64.6673 8.40463 64.5557 8.58613C64.5183 9.27033 64.1553 9.84563 64.1157 10.532C64.1157 10.6019 64.1503 10.6019 64.2229 10.6019C64.5859 10.3527 64.9115 10.0667 65.2701 9.88743C65.6353 9.67293 65.7101 9.31268 65.7123 8.91668C65.6749 8.66313 65.8564 8.44918 65.7497 8.19508C65.7497 8.12303 65.7167 8.01358 65.6051 8.05098ZM85.4414 8.08123C85.2923 8.80283 86.2301 8.59108 86.372 9.17023C86.4792 9.34953 86.3698 9.49418 86.405 9.67293C86.477 9.78238 86.5843 9.78238 86.7284 9.78238C87.0914 9.64048 87.1656 9.24503 87.2008 8.88423C87.1332 8.63068 86.9517 8.34193 86.7377 8.16043C86.3423 7.97893 85.8022 7.75783 85.4414 8.08123ZM62.4002 7.78093C61.9278 8.17418 61.4553 8.64003 60.9829 9.03548C60.9482 9.07068 60.913 9.14273 60.9482 9.17958C61.3437 9.07288 61.672 8.86113 62.1049 8.82373C62.3584 8.57458 62.4679 8.17913 62.4354 7.81833L62.4002 7.78093ZM84.0356 7.82273C83.8541 7.82053 83.6379 7.78313 83.5279 7.89258C83.5279 7.92778 83.5279 7.96518 83.5653 7.96518C83.9613 8.10928 84.3194 8.32818 84.6802 8.54653C84.7522 8.43983 84.7896 8.25833 84.7896 8.11368C84.5757 7.93438 84.2495 7.96738 84.0356 7.82273ZM81.0777 7.73418C80.212 8.16263 79.4134 8.80723 78.4382 8.94693C77.7914 9.01678 77.1419 8.86773 76.7833 8.36063L76.7464 8.39803C76.637 8.75828 76.8163 9.04703 77.0676 9.26593C77.5681 9.77083 78.436 9.70318 79.0504 9.49143C79.9535 9.13558 80.6773 8.45578 81.4011 7.73693C81.2938 7.69953 81.1871 7.73418 81.0777 7.73418ZM73.5416 7.55048C73.2182 7.76718 72.8574 7.87168 72.6038 8.12303L72.6363 8.19508L73.9348 8.74453L74.0047 8.70713C74.151 8.38153 74.2604 8.02293 74.3 7.62748L73.5416 7.55048ZM66.4361 7.65773C66.2568 8.01633 66.2172 8.44918 66.1798 8.84683C66.1056 9.06353 66.1402 9.31488 66.1754 9.49638C66.501 9.35228 66.792 9.03108 67.0466 8.70713C67.155 8.52838 67.0483 8.30948 67.0857 8.09278C67.0857 7.76938 67.1946 7.48338 67.1973 7.15723C66.8734 7.22708 66.6897 7.51583 66.4361 7.65773ZM74.4469 6.90588C74.3028 7.01313 74.0883 7.04778 74.014 7.22928C74.1213 7.30188 74.228 7.26668 74.3374 7.26668C74.4815 7.26668 74.5167 7.12478 74.5541 6.98068C74.5541 6.94328 74.5189 6.87123 74.4469 6.90588ZM73.4393 6.57533C73.1505 6.53793 73.1852 6.86408 73.0763 7.00818C73.0042 7.11543 72.9668 7.29473 73.0389 7.36678C73.2182 7.29693 73.4365 7.18968 73.6158 7.01093C73.546 6.86628 73.5113 6.72218 73.4393 6.57533ZM84.871 6.38448C84.5476 6.23818 84.2242 6.27283 83.9333 6.37788C83.6819 6.41473 83.5351 6.59183 83.2837 6.59183C82.8509 6.69853 82.418 6.87563 81.983 6.98288C81.5149 7.08738 81.01 7.04778 80.5772 7.18968C79.5998 7.54608 78.848 6.78488 77.8728 6.92458C77.5467 6.95923 77.1859 7.10168 77.077 7.42508C76.9675 7.71328 77.0396 8.03943 77.2535 8.22093C77.754 8.76323 78.6593 8.51408 79.2368 8.30233C80.0673 7.94648 80.7565 7.19243 81.7641 7.26888C82.1969 7.27163 82.5605 7.12918 82.9559 6.98728C83.6792 6.66608 84.5801 6.81513 85.2274 7.18033C85.553 7.25293 85.7648 7.79523 86.0931 7.47128C86.2026 7.18308 85.8418 6.96638 85.6625 6.78488L84.871 6.38448ZM73.9816 6.18208C73.909 6.18208 73.8743 6.25413 73.8743 6.29153C73.8347 6.43563 73.8721 6.57753 73.9788 6.68698C74.0883 6.72438 74.1955 6.58028 74.305 6.51043C74.2725 6.36578 74.0536 6.29153 73.9816 6.18208ZM64.5716 5.84438C64.0645 6.23818 63.5569 6.63363 63.124 7.09893L62.8633 8.61198V8.79348H62.8985C63.294 8.54213 63.8016 8.36503 64.0574 7.89753L64.46 6.31463C64.46 6.13313 64.6442 5.99123 64.6068 5.84438H64.5716ZM65.7288 5.70523C65.5468 5.77728 65.3306 5.70523 65.2212 5.88673C64.9654 6.53353 64.6745 7.18033 64.6349 7.89973L64.6695 7.93713C65.0303 7.75783 65.4654 7.61593 65.7541 7.29253C65.7915 6.75243 65.9054 6.21233 66.0495 5.74483L65.7288 5.70523ZM72.7947 5.67223C72.6154 5.56278 72.4339 5.77728 72.2546 5.74208C72.1798 5.84933 72.2892 5.88673 72.3613 5.95878C72.5758 6.17493 72.8992 6.21233 73.2248 6.14248C73.2996 6.10783 73.4415 6.07043 73.4063 5.92633C73.1549 5.92633 72.9734 5.81688 72.7947 5.67223ZM79.574 5.67003C79.4299 5.85153 79.3204 6.10288 79.3529 6.35423C79.4249 6.53573 79.5344 6.75243 79.7115 6.78983C79.9304 6.89873 80.2164 6.86628 80.4325 6.75683C80.6146 6.72218 80.7235 6.50823 80.7609 6.32618C80.7609 6.11003 80.7284 5.89333 80.619 5.71183C80.3698 5.42363 79.8627 5.49348 79.574 5.67003ZM74.8869 5.35818C74.7054 5.53748 74.2373 5.64473 74.3446 5.96813C74.4513 6.11223 74.5959 6.18703 74.7752 6.22168C74.9567 6.04238 75.031 5.75638 75.1008 5.50228C75.0684 5.39558 74.9589 5.35818 74.8869 5.35818ZM75.1102 4.45728C75.0007 4.52988 74.7494 4.59973 74.8539 4.78123C74.9633 4.85328 75.0706 4.96273 75.2147 4.99738C75.3566 4.92753 75.3593 4.71138 75.4314 4.56673C75.5056 4.35058 75.2174 4.38798 75.1102 4.45728ZM71.1419 4.29228C71.0721 4.29228 71.0721 4.36433 71.0721 4.40173C71.286 4.76253 71.4631 5.16018 71.8239 5.37908C71.9312 5.48633 72.1105 5.52373 72.2172 5.45113C72.3288 5.41648 72.364 5.30923 72.2914 5.23718C71.9334 4.87418 71.6122 4.40393 71.1419 4.29228ZM81.5292 4.02223C81.422 4.05743 81.3846 4.12948 81.3846 4.20153C81.3499 4.38083 81.4566 4.49028 81.5985 4.59973C81.708 4.59973 81.8504 4.67398 81.9621 4.56673C82.0688 4.42263 81.89 4.31318 81.8526 4.16908C81.7454 4.13168 81.6387 4.02223 81.5292 4.02223ZM78.2848 3.82423C78.1077 3.78738 77.8888 3.68013 77.71 3.78518C77.3096 3.92708 76.9136 4.32253 76.8768 4.75538C76.9092 5.04413 76.9813 5.33288 77.2326 5.51438C78.0939 6.06108 78.9272 5.34443 79.7577 5.20253C80.5145 5.06283 81.0172 5.64198 81.5919 5.97033L82.0622 6.00993C82.0968 6.04458 82.0622 6.11718 82.0622 6.11718C81.9505 6.29648 81.7712 6.29648 81.5897 6.33113C81.4082 6.36578 81.2289 6.18428 81.1217 6.29153C81.1217 6.40098 81.048 6.61713 81.1569 6.65233L81.7712 6.61988C82.3834 6.44278 82.9977 6.22883 83.5747 5.94503L83.6121 5.87243C83.2887 5.47478 82.8206 5.21848 82.4274 4.96493C82.176 4.71138 81.9571 5.10683 81.6689 4.96053C81.2031 4.63438 80.5513 4.91818 80.0486 4.73448C79.5091 4.33683 78.9316 3.97328 78.2848 3.82423ZM76.4203 2.08623L76.3108 2.15608C76.2344 2.69838 76.269 3.30778 76.1596 3.85008C75.8593 5.57928 75.0238 7.05493 74.6168 8.74673C74.3583 9.93638 74.2813 11.3416 74.4887 12.6055C74.5937 13.5064 74.8775 14.3721 75.1591 15.24C75.4803 16.2152 76.0529 17.1557 76.9136 17.8096C77.165 18.0632 77.4933 17.7772 77.8145 17.814C78.5009 17.7095 79.0036 18.0725 79.6532 18.1121C80.0882 18.1143 80.5563 18.0445 80.8797 17.6837C80.9539 17.6144 80.9539 17.4697 80.8472 17.3977C79.8391 16.9604 78.7594 16.6645 77.9702 15.8313C77.6143 15.1449 77.5841 14.316 77.4422 13.5202C77.589 13.1621 77.6979 12.8382 77.9146 12.55C78.243 12.0473 78.5334 11.5094 79.0036 11.1139C79.3298 11.0067 79.5817 11.3328 79.9045 11.2602C80.1234 11.2278 80.0167 10.939 80.1603 10.7949C80.3049 10.6134 80.5216 10.5089 80.7752 10.4737C81.4264 10.4039 82.1084 10.5529 82.6111 10.988C82.8998 11.2421 83.1858 11.533 83.5818 11.6419C83.6165 11.6419 83.7259 11.6793 83.7259 11.6073C82.9741 10.7366 82.0385 10.1547 80.9963 9.93363L80.9611 9.82693C80.9237 9.64268 81.0705 9.53598 81.2124 9.39408C81.5408 9.14273 81.9384 9.00303 82.3691 9.07508C83.2001 9.25878 83.8447 9.84068 84.4519 10.4924C84.5245 10.5645 84.6692 10.5298 84.7781 10.46C84.8127 10.3874 84.7407 10.3131 84.6708 10.2411C84.024 9.69658 83.4515 9.00963 82.6952 8.75388C82.4439 8.67963 82.1898 8.78633 81.9758 8.64003C81.9384 8.60483 81.9038 8.49538 81.9758 8.46073C82.3014 8.20938 82.5924 7.85078 82.9532 7.67423C83.4955 7.38768 84.3243 7.42728 84.8292 7.68303C84.9711 7.71823 85.1152 7.97178 85.2599 7.82768C85.2967 7.75563 85.2967 7.64838 85.2599 7.57633C84.9013 7.28538 84.4338 7.17593 84.0009 7.13633C83.2793 7.20398 82.7018 7.56258 82.0501 7.74133C81.3989 8.45853 80.6751 9.03108 79.9513 9.56843C79.1901 10.0337 78.2529 10.2433 77.3514 10.0222C76.8113 9.80328 76.274 9.29618 76.2041 8.68183C76.2063 8.35843 76.2806 8.03503 76.5347 7.78313C76.5715 7.56698 76.5715 7.31563 76.6832 7.09893C76.9373 6.52198 77.6237 6.45433 78.2358 6.49393C78.452 6.49393 78.6313 6.67543 78.848 6.60558L78.8524 6.10068L78.815 6.06328C78.2012 6.31463 77.3723 6.27283 76.8696 5.83778C76.5809 5.65628 76.4021 5.36753 76.3691 5.00673C76.2624 4.71798 76.3713 4.39238 76.5182 4.10638C76.8438 3.67298 77.2442 3.31493 77.7843 3.31713C78.8293 3.32428 79.618 3.90343 80.4815 4.37863C80.6283 4.41548 80.7702 4.48808 80.9143 4.37863L80.9913 3.87593L80.9193 3.76868C80.4144 3.44033 79.8765 3.14938 79.3364 2.89363C78.364 2.56308 77.4653 2.19788 76.4203 2.08623ZM8.84341 1.91133C7.69336 1.03848 6.07361 0.671084 4.62821 1.13198C3.11076 1.62973 1.87711 3.13783 1.72366 4.75758C1.72366 4.83238 1.61641 4.86703 1.68626 4.93908C1.57461 5.58643 1.60981 6.20078 1.60486 6.85033C1.74456 7.93218 2.02616 8.90733 2.41941 9.84783C3.34616 12.0869 5.31956 13.8276 7.25831 15.317C8.91051 16.4088 10.5655 17.4626 12.3271 18.2287C13.5492 18.8475 14.8456 19.2875 16.1793 19.5828C17.3684 19.8413 18.5597 19.4156 19.6399 19.8903C20.7548 20.2929 21.3251 21.4495 21.753 22.4247C22.2535 23.5467 22.4631 24.7732 22.7073 25.9997C22.9564 27.1563 23.4542 28.2035 24.134 29.1814C24.4926 29.7606 25.0299 30.2308 25.4958 30.7407C26.2493 31.6806 27.3641 32.2625 27.8624 33.3471C28.1116 33.8894 28.2513 34.7573 27.8877 35.2952C27.8157 35.4767 27.6342 35.5812 27.5973 35.7627L28.2788 36.4497L28.996 37.3572C29.4613 38.1156 29.7082 38.9467 29.7753 39.8476C29.8105 40.3547 29.8078 40.8948 29.8408 41.3997C29.9475 41.4717 30.0201 41.3623 30.129 41.3298C30.4177 41.1159 30.7411 41.332 30.993 41.4789C31.2438 41.8743 31.6745 42.2379 31.6723 42.7796C31.6701 43.2477 31.3439 43.5711 30.9809 43.8576L30.9441 43.9297C31.5887 44.6903 32.126 45.5214 32.7706 46.2452C33.4878 47.332 34.2391 48.4166 34.9541 49.5034C35.5987 50.3366 36.5227 51.1446 37.4209 51.5472H41.5475L41.652 51.3794C41.7615 51.1633 41.6542 50.9092 41.6542 50.6578C41.6196 50.4763 41.4777 50.2948 41.4425 50.0787C41.5519 49.8994 41.8055 49.8273 41.9501 49.6854C41.9149 49.2152 41.1933 49.3197 41.1966 48.8148C41.1262 48.454 40.8754 48.1284 40.5883 47.9117C40.409 47.7654 40.1929 47.7626 40.0856 47.5833C40.3029 47.332 40.5883 47.6207 40.8419 47.6603C41.2379 47.9491 41.7032 48.3121 41.6289 48.8544C41.8803 49.0705 42.2042 49.1079 42.455 49.3615C42.6343 49.3642 42.7091 49.1129 42.7834 48.9308C42.6041 48.6773 42.3153 48.603 42.0266 48.5678C41.7752 48.5656 41.7406 48.2747 41.7054 48.0981C41.4194 47.6625 40.9513 47.3694 40.5559 47.0806C40.1599 46.8623 39.5483 46.9668 39.1501 47.1109C38.9686 47.2506 38.8217 47.6114 38.5335 47.5745C38.033 46.9596 37.5303 46.3084 37.1393 45.6567C36.6712 45.0049 36.4595 44.2459 36.1036 43.5595C35.7478 42.6564 35.717 41.6092 35.4332 40.6715C35.3633 40.3453 35.2192 40.0197 34.9327 39.803L33.3179 38.4951C32.7057 37.988 32.2052 37.3363 31.9561 36.6147C31.7779 36.2517 31.889 35.7836 31.856 35.3508C31.9286 34.99 31.9654 34.6666 32.1497 34.3432C32.5495 33.6238 33.3432 33.2679 34.1742 33.3097C34.6071 33.2751 34.9305 33.5286 35.2891 33.6755C35.866 33.9659 36.2945 34.4383 36.6531 34.9812C36.762 34.6924 36.6921 34.3663 36.6575 34.0781C36.4435 33.3911 36.2318 32.7421 36.1267 32.0205C36.0965 31.2643 36.35 30.5427 36.8599 30.0048C37.1486 29.826 37.4022 29.6115 37.7256 29.6115C38.0143 29.6511 38.3779 29.6165 38.4824 29.9047C38.3377 30.156 37.9049 29.9377 37.6513 30.0796C36.9297 30.4382 36.8181 31.2665 36.8483 31.9881C36.883 32.3137 36.9182 32.6723 37.2416 32.7839C38.4285 33.3658 39.7248 33.6964 41.0591 33.9571C41.9221 34.0709 42.823 34.0753 43.6887 34.2222C44.7705 34.3388 45.8155 34.4873 46.8979 34.5296C47.8709 34.534 48.8086 34.4664 49.7464 34.3641C50.9008 34.2244 51.9508 33.7965 53.0678 33.5517C53.8263 33.4472 54.5479 33.3422 55.3393 33.3125C56.2072 33.2795 57.0361 33.3565 57.9018 33.2866C58.4809 33.219 59.0562 33.3306 59.6678 33.296L59.7074 33.2261L59.4539 33.2239C59.3472 33.2608 59.2377 33.1519 59.1283 33.1865L58.6602 33.1491L58.3368 33.0375L57.6504 33.0699C57.1477 33.0303 56.6027 32.9935 56.1379 32.8092C55.9933 32.7372 55.814 32.8444 55.7029 32.9165C54.8388 33.1282 53.9011 32.9423 53.1817 32.5067L52.8209 32.5766C52.316 32.933 51.7715 33.291 51.1571 33.3609C50.5796 33.3213 49.9328 33.3543 49.4626 33.0633C48.5991 33.1678 47.6239 33.2355 46.8677 32.7977C46.6906 32.7234 46.5817 32.4347 46.3325 32.5419C45.2848 32.4649 44.4587 31.8484 43.7046 31.1944C43.4533 31.085 43.0925 31.1196 42.9132 30.9035C42.7344 30.8287 42.9506 30.722 42.8785 30.6125C42.0502 30.3216 41.2236 29.5956 40.7957 28.7992C40.7605 28.7271 40.8325 28.6204 40.7632 28.5456C40.2952 28.1826 39.8645 27.7476 39.5785 27.2053C39.7226 26.9561 40.0834 27.1002 40.2996 26.9583C40.2649 26.7422 40.0856 26.5607 39.9789 26.3792C39.9437 26.2719 39.7996 26.1603 39.9437 26.053C40.414 26.0206 40.8468 26.058 41.3143 26.0602C41.3869 26.0976 41.4238 25.9903 41.4612 25.9183C41.4958 25.8831 41.5706 25.739 41.6779 25.811C42.2526 25.9227 42.867 25.9947 43.3697 26.2884C43.621 26.4699 43.8372 26.7235 44.0863 26.7977C44.7727 26.8373 45.348 27.1283 45.997 27.3125C46.5718 27.494 47.0772 27.8592 47.652 28.1128C47.7966 28.2244 48.0106 28.1876 48.1547 28.3339C48.8042 28.2294 49.5627 28.269 50.1726 28.4879C50.7171 28.3454 51.1852 28.1689 51.6202 27.8823C52.1251 27.4517 52.7048 27.1679 53.284 26.8445C53.4633 26.7026 53.4308 26.4138 53.6844 26.2697C54.192 25.8765 54.8064 25.6273 55.3459 25.3408L55.8184 24.9827C56.0004 24.8408 56.1792 24.6962 56.326 24.5169C56.1819 24.3706 55.9674 24.1913 55.7859 24.0472V23.9746C56.1143 23.3998 56.7286 23.2205 57.2709 22.9345L57.1989 22.8273C56.3376 22.318 55.4741 21.5914 54.9389 20.6861C54.4384 19.783 54.0474 18.8453 54.1244 17.726C54.1986 17.4021 54.164 17.0418 54.3455 16.7531C54.3829 16.6112 54.4918 16.4319 54.4197 16.3202C54.2036 16.285 53.9126 16.4995 53.8076 16.2482C53.8428 15.9941 53.9896 15.7427 53.994 15.4171C53.5958 15.5964 53.1608 15.7383 52.7653 15.8082C52.6207 15.8428 52.4045 15.9154 52.3325 15.806C52.3347 15.5172 52.5167 15.3005 52.6603 15.0844C52.6603 15.0492 52.663 14.9425 52.5904 14.9425C52.118 15.119 51.5757 15.2609 51.073 15.366C49.3768 15.7917 47.5354 15.9968 45.6945 16.1316L41.2962 16.1453C41.2236 16.1805 41.1889 16.0733 41.1515 16.1453L39.5642 16.1013C37.7256 16.1272 35.9221 15.8989 34.1929 15.6382L33.4735 15.5288C32.7173 15.487 32.0309 15.3753 31.3115 15.2637C29.8688 15.0772 28.391 14.9238 26.8757 14.9518L24.7483 15.0844L23.6313 15.2241C21.9697 15.5029 20.4891 16.1453 19.0069 16.9296C18.0664 17.2118 17.0566 17.4257 15.9742 17.2745C15.4693 17.1997 15.0012 17.1254 14.5337 16.9417C12.8414 16.5017 11.2216 15.8428 9.67666 15.0426C8.81316 14.6048 7.98651 14.0603 7.16041 13.513C6.22706 12.7524 5.29151 12.0632 4.46761 11.1183C3.49961 9.96168 2.85721 8.69558 2.57781 7.21553C2.29401 6.16613 2.37321 4.90443 2.73841 3.89903C3.32251 2.71213 4.44451 1.74413 5.77826 1.67868C6.96956 1.68308 8.01291 2.12528 8.76421 3.02838C9.15966 3.57068 9.29936 4.22243 9.33181 4.90663C9.32961 5.48413 9.07386 6.06108 9.28781 6.60338C9.64586 6.89213 9.89721 7.25513 10.1491 7.61593C10.2184 7.76003 10.2536 7.97673 10.4351 8.01358C10.7239 7.94373 10.7959 7.58293 10.9054 7.33213C11.017 6.86408 11.3448 6.28713 11.0214 5.78168C10.7354 5.38403 10.3768 4.98583 10.2723 4.51558C10.0952 3.75713 9.77401 3.07073 9.27351 2.41898L8.84341 1.91133ZM75.4847 1.64843C74.5866 0.959834 73.1786 1.31073 72.1341 1.44823C71.335 1.62533 70.5787 1.87393 69.8549 2.23033C68.3028 2.97943 66.7458 3.80113 65.4423 5.09308V5.12773C65.8377 5.16513 66.1985 5.09528 66.5593 4.95338C66.5945 4.91818 66.7408 4.88353 66.7782 4.95558C66.8107 5.49568 66.5549 5.89113 66.4455 6.36138C66.4455 6.50548 66.336 6.64738 66.4433 6.75683L67.7094 6.11223C67.8161 6.07978 67.9255 5.89828 68.0696 6.04238C68.1422 6.15403 68.1395 6.26128 68.0674 6.36853C67.8859 6.72658 67.8485 7.12478 67.7369 7.52023C67.7 7.69953 67.6654 7.88103 67.7347 8.02568L68.4216 7.66708C68.6752 7.59723 68.8215 7.27383 69.0706 7.34808C69.2147 7.52958 69.0684 7.74408 69.1405 7.96023L68.9914 8.78853C69.4243 8.64883 69.7873 8.39803 70.1481 8.10928C70.2229 8.07408 70.3296 8.10928 70.3648 8.18353C70.2575 8.50748 70.1459 8.86773 70.2157 9.22853L70.2531 9.33578C70.4693 9.15648 70.686 8.90513 70.9395 8.72583C71.4818 8.33258 71.9169 7.86728 72.4988 7.47403L72.6082 7.00598C72.6434 6.89653 72.7177 6.71723 72.6825 6.57093C71.7821 6.46148 71.1001 5.55398 70.7443 4.83238C70.637 4.65088 70.565 4.43418 70.3505 4.32473C70.3505 4.29008 70.3505 4.25268 70.3879 4.18063L70.9302 3.82203C71.6892 3.14278 72.6665 2.57023 73.821 2.86558C74.2164 3.01023 74.7169 3.23133 74.861 3.69883C74.8236 3.80608 74.7147 3.84293 74.6075 3.80608C73.9607 3.33363 72.8783 3.40073 72.2639 3.79453C72.1567 3.86658 71.9752 3.93643 71.9752 4.04533C72.2986 4.29943 72.5477 4.66023 72.7991 4.98803C73.013 5.42088 73.4789 5.56773 73.986 5.49788L74.4562 5.13928L74.3864 4.67178C74.5354 4.20373 75.0403 3.98758 75.4732 3.88253C75.6921 3.30778 75.8411 2.65823 75.7361 2.00923L75.4847 1.64843ZM88.2667 53.1086H4.08151V51.5472H6.52956C6.63901 51.4751 6.63681 51.2304 6.60216 51.1583C6.13631 50.4345 6.03401 49.5314 6.07361 48.6311C6.07856 48.0536 6.18746 47.514 6.26226 46.9739L6.44816 45.8915L6.71161 44.0925C6.75066 43.4781 6.82546 42.9034 6.86506 42.289C6.83481 41.3161 6.91126 40.3778 6.95086 39.4026C7.03226 38.1068 7.86551 37.1009 8.77081 36.2027C9.35051 35.7743 10.0023 35.4883 10.6513 35.2413C11.4103 35.0274 12.062 34.5989 12.6786 34.1336C13.5839 33.0914 13.7351 31.6878 13.9958 30.354L14.152 28.1546L14.2285 27.2889C14.3077 25.8858 14.7103 24.5867 15.439 23.3998C15.6926 23.0066 16.0908 22.648 16.4516 22.3246C16.456 21.9291 16.3861 21.4963 16.5676 21.1355C16.605 20.9562 16.8591 20.8143 16.7145 20.6328C16.1744 20.4463 15.5622 20.3743 15.0221 20.1906C13.5096 19.7506 12.034 19.2363 10.6304 18.5081C8.90666 17.5258 7.21651 16.4715 5.60116 15.2356C4.23496 14.1835 2.98041 12.8057 2.08666 11.3955C1.47946 10.3109 0.978962 9.15428 0.806812 7.89258C0.562612 6.55663 0.676462 5.14863 0.971812 3.88968C1.19071 3.24288 1.51906 2.63073 1.91946 2.05598L2.64326 1.26673C3.07831 0.943334 3.51336 0.550084 4.05566 0.408184C4.45166 0.263534 4.81191 0.0869835 5.21011 0.0891835C5.64296 0.0539835 6.11321 -0.0131165 6.50866 0.0963335C6.97671 0.135384 7.40956 0.282234 7.84241 0.426334C8.27306 0.501134 8.63386 0.794284 9.02931 0.973584C10.0347 1.80903 10.8212 2.89583 11.2123 4.08768C11.3894 4.80873 12.1082 5.24653 12.2831 5.93293C12.425 6.36578 12.2435 6.76178 12.0967 7.15723C11.6968 7.87663 11.4405 8.66753 10.8586 9.27748C10.7145 9.38693 10.5699 9.45898 10.4258 9.38473C9.77896 9.09158 9.56721 8.33258 9.17341 7.79248C8.60141 7.13853 8.24281 6.34488 8.31981 5.44453C8.39406 5.04633 8.46831 4.57883 8.39846 4.18063C8.25656 3.67573 7.86331 3.16808 7.35841 2.91233C6.96516 2.69563 6.46026 2.61918 5.95481 2.58178C5.12651 2.64943 4.36531 3.04268 3.89286 3.76153C3.52986 4.33408 3.45286 5.02103 3.37861 5.74208C3.29941 7.18308 3.79771 8.37438 4.43956 9.53378C5.04731 10.5089 5.91081 11.307 6.77156 12.0704C7.27481 12.396 7.74011 12.7964 8.24501 13.0873C9.35766 13.8859 10.582 14.47 11.8035 14.9821C12.9558 15.4914 14.2147 15.7873 15.439 16.1547C16.1975 16.3389 17.133 16.4132 17.892 16.2036C19.2654 15.7405 20.5661 15.0635 21.9395 14.6004L23.6357 14.1769C25.1163 13.9673 26.7036 13.832 28.2881 13.9486L29.3705 14.0625C30.5228 14.2137 31.7141 14.3281 32.9037 14.442C33.7667 14.591 34.6302 14.6675 35.4959 14.8165C37.1184 15.1124 38.7777 14.9793 40.4723 15.0585C41.3726 15.1729 42.2735 15.0679 43.1766 15.075L47.0723 14.9491C49.0924 14.8165 51.0405 14.4282 52.8115 13.6808C53.4611 13.4316 54.0754 13.0384 54.7272 12.6825C55.6303 12.0352 56.5378 11.5028 57.4084 10.7482C58.2021 10.0667 59.0375 9.42158 59.8334 8.77698C61.4977 7.34368 62.9871 5.76573 64.7234 4.36928C65.6656 3.65208 66.5362 2.82598 67.5856 2.32823L69.1383 1.50653C70.0062 1.11328 70.9439 0.794284 71.8844 0.547334C73.2902 0.335584 75.0238 0.130983 76.1739 1.07368C76.3158 1.32723 76.6414 1.25738 76.8927 1.29478C77.468 1.36903 78.0098 1.55328 78.5477 1.73478C79.5575 2.03013 80.5282 2.50258 81.3895 3.11913C82.0385 3.15873 82.6133 3.70323 82.8278 4.28073C83.2232 4.46443 83.5818 4.72073 83.9426 4.97208L84.4426 5.44453C85.0201 5.66343 85.6322 5.91918 86.1327 6.35423L86.7075 7.04118C86.7779 7.40418 87.1354 7.58788 87.3521 7.84143C87.494 8.23743 87.8526 8.52838 87.7805 8.99588C87.7035 9.46393 87.4868 9.93143 87.0496 10.2526L86.4721 10.6833C86.0695 11.4395 85.6344 12.1936 84.9805 12.8409C84.7291 13.1621 84.2589 13.1594 83.8981 13.1946C83.6819 13.1225 83.4306 13.155 83.2491 13.2644C82.8509 13.7297 82.3784 14.2324 81.7289 14.228L81.692 14.1928C81.6244 13.7952 81.6266 13.3271 81.8081 12.9663C81.6293 12.7502 81.3752 13.0384 81.1217 13.0362C80.9776 12.9641 81.0518 12.7452 80.8357 12.7452C80.7631 12.7452 80.6542 12.8173 80.619 12.7452C80.5843 12.4565 80.2582 12.3822 80.0816 12.2354H80.0442L80.0024 13.2804C80.0002 13.8953 80.0673 14.5096 80.1025 15.1218C80.1025 15.1564 80.1025 15.1938 80.0651 15.2285C79.7417 15.1218 79.4183 14.9007 79.1296 14.8281V14.8655C79.3435 15.2637 79.7395 15.443 80.0629 15.7334C80.1696 15.6635 80.2444 15.4848 80.2813 15.3401C80.3907 15.0145 80.3935 14.6185 80.5398 14.2951C80.7889 14.4046 81.0056 14.6581 81.2196 14.8748C81.3637 15.2356 81.5078 15.5986 81.5408 16.0315C81.5386 16.2828 81.3219 16.5694 81.5358 16.8229C81.6777 17.0044 81.8224 17.2233 81.7476 17.4747C81.6035 17.9796 81.4198 18.5543 80.8747 18.7683C80.3324 19.0548 79.6136 18.9058 79.0366 18.7941C78.6406 18.6847 78.21 18.4658 77.8123 18.6451C77.6655 18.6803 77.5588 18.7523 77.5214 18.859C77.4862 19.0383 77.5934 19.183 77.6281 19.3271C78.1962 20.7725 78.5504 22.2547 78.8667 23.8046C78.9338 24.3469 78.9316 24.9591 78.892 25.5366C78.8546 26.0789 78.6709 26.5464 78.5966 27.0865C77.7942 29.0648 76.8834 30.9733 75.466 32.6233C75.3197 32.8747 74.9589 33.054 75.0667 33.3422C75.422 34.1732 75.6712 35.0043 75.955 35.7979L76.4857 37.5315C76.8394 38.8675 77.121 40.2034 77.512 41.5047C78.045 43.0942 78.6478 44.6485 79.7604 45.9872C80.0838 46.3871 80.5865 46.5339 81.0568 46.3898C81.8873 46.2501 82.6787 46.436 83.2887 46.9805C83.8981 47.3809 84.2215 47.9232 84.794 48.3588C85.1922 48.5029 85.4436 48.8659 85.6575 49.2267C86.3769 49.5545 86.6607 50.3509 86.6211 51.1094C86.5843 51.2166 86.5117 51.3607 86.5815 51.5054L86.6211 51.5472H88.2667V53.1086Z" fill="white" />
    <mask id="mask0" mask-type="alpha" maskUnits="userSpaceOnUse" x="72" y="56" width="14" height="11">
        <path fill-rule="evenodd" clip-rule="evenodd" d="M72.1616 56.3425H85.1625V66.88H72.1616V56.3425Z" fill="white" />
    </mask>
    <g mask="url(#mask0)">
        <path fill-rule="evenodd" clip-rule="evenodd" d="M78.5641 58.1113C77.6236 58.1438 76.7579 58.2835 75.9995 58.7119C74.8775 59.3543 74.0772 60.506 74.1817 61.8398C74.2818 63.2104 75.4665 64.3346 76.6908 64.8092C77.6962 65.0677 78.8507 65.2542 79.9325 65.0072C80.5122 64.8653 81.1244 64.7234 81.6315 64.367C82.5692 63.7945 83.2265 62.8243 83.1957 61.7072C83.1979 60.8762 82.9515 60.1199 82.3415 59.5028C82.0555 59.2845 81.8042 58.9583 81.4802 58.812C80.6189 58.3022 79.5717 58.1905 78.5641 58.1113ZM79.5816 56.3865C80.9869 56.5752 82.3206 57.0498 83.4311 57.9925C84.0058 58.537 84.4337 59.0821 84.7923 59.7311C85.1482 60.5643 85.2884 61.6093 85.0294 62.5449C84.8831 63.1218 84.7016 63.6619 84.3738 64.1646C83.6098 65.3493 82.3437 66.1012 81.1156 66.5296C80.284 66.7386 79.4183 66.9157 78.5174 66.8739C76.1001 66.9718 73.8699 65.8031 72.6923 63.7433C72.4762 63.3803 72.3711 63.0195 72.2639 62.6241L72.1616 61.721C72.1709 59.8823 73.2951 58.2301 74.8868 57.2643C75.9016 56.6918 77.0208 56.3728 78.2479 56.3425L79.5816 56.3865Z" fill="white" />
    </g>
    <path fill-rule="evenodd" clip-rule="evenodd" d="M7.6275 56.3362V66.7746H16.7718V65.052H9.58V56.3362H7.6275Z" fill="white" />
    <path fill-rule="evenodd" clip-rule="evenodd" d="M38.999 56.3506V66.7725H50.3658V65.0527H40.8772V62.488H48.4408V60.7214H40.8772V58.1777L50.324 58.1727V56.3462L38.999 56.3506Z" fill="white" />
</svg>
